<svg width="1237" height="671" viewBox="0 0 1237 671" fill="none" xmlns="http://www.w3.org/2000/svg">
<path d="M408.715 1C408.715 0.447715 408.267 0 407.715 0C407.163 0 406.715 0.447715 406.715 1H408.715ZM14.8287 310.844L15.7134 310.378L14.8287 310.844ZM1063.34 180.771L1063.62 179.81L1063.34 180.771ZM819.632 422.511L819.434 421.531L819.632 422.511ZM406.705 5.00573C406.702 5.55801 407.147 6.00805 407.699 6.01092C408.252 6.01379 408.702 5.56841 408.705 5.01614L406.705 5.00573ZM408.621 13.0064C408.63 12.4541 408.189 11.9995 407.637 11.9908C407.085 11.9822 406.63 12.4229 406.622 12.9751L408.621 13.0064ZM406.457 20.8878C406.442 21.4399 406.878 21.8991 407.43 21.9135C407.982 21.9279 408.442 21.4921 408.456 20.94L406.457 20.8878ZM408.209 28.8163C408.229 28.2644 407.798 27.8006 407.246 27.7804C406.695 27.7603 406.231 28.1913 406.211 28.7432L408.209 28.8163ZM405.882 36.5927C405.856 37.1444 406.282 37.6127 406.833 37.6388C407.385 37.6648 407.853 37.2387 407.88 36.687L405.882 36.5927ZM407.458 44.6826C407.491 44.1312 407.07 43.6583 406.518 43.6262C405.967 43.5942 405.494 44.0152 405.462 44.5665L407.458 44.6826ZM404.959 52.4774C404.921 53.0284 405.337 53.5059 405.887 53.544C406.438 53.582 406.916 53.1662 406.954 52.6153L404.959 52.4774ZM406.367 60.4845C406.411 59.934 406.001 59.4519 405.45 59.4078C404.9 59.3637 404.418 59.7743 404.373 60.3248L406.367 60.4845ZM403.706 68.1237C403.655 68.6737 404.061 69.1603 404.611 69.2104C405.161 69.2606 405.647 68.8554 405.697 68.3054L403.706 68.1237ZM404.924 76.2845C404.98 75.7352 404.58 75.244 404.031 75.1876C403.482 75.1312 402.991 75.5308 402.934 76.0802L404.924 76.2845ZM402.079 83.9669C402.016 84.5156 402.41 85.0113 402.959 85.074C403.507 85.1367 404.003 84.7427 404.066 84.194L402.079 83.9669ZM403.124 92.033C403.193 91.485 402.805 90.9849 402.257 90.9159C401.709 90.8469 401.209 91.2351 401.14 91.7831L403.124 92.033ZM400.118 99.5371C400.043 100.084 400.425 100.589 400.972 100.664C401.519 100.739 402.024 100.357 402.099 99.8098L400.118 99.5371ZM400.958 107.748C401.04 107.202 400.664 106.693 400.117 106.611C399.571 106.529 399.062 106.905 398.98 107.452L400.958 107.748ZM397.758 115.288C397.669 115.834 398.039 116.347 398.585 116.436C399.13 116.524 399.643 116.154 399.732 115.609L397.758 115.288ZM398.421 123.391C398.516 122.847 398.152 122.329 397.608 122.234C397.064 122.139 396.546 122.503 396.451 123.047L398.421 123.391ZM395.056 130.759C394.955 131.302 395.312 131.825 395.855 131.926C396.398 132.028 396.92 131.67 397.022 131.127L395.056 130.759ZM395.498 138.996C395.606 138.455 395.255 137.928 394.714 137.819C394.172 137.711 393.645 138.062 393.537 138.603L395.498 138.996ZM391.932 146.361C391.817 146.901 392.161 147.433 392.701 147.548C393.241 147.663 393.773 147.319 393.888 146.779L391.932 146.361ZM392.194 154.475C392.316 153.936 391.978 153.4 391.44 153.278C390.901 153.156 390.365 153.494 390.243 154.032L392.194 154.475ZM388.451 161.703C388.322 162.24 388.652 162.78 389.189 162.909C389.726 163.038 390.266 162.707 390.395 162.17L388.451 161.703ZM388.472 169.937C388.608 169.402 388.285 168.857 387.75 168.721C387.215 168.585 386.67 168.908 386.534 169.443L388.472 169.937ZM384.532 177.088C384.389 177.621 384.705 178.17 385.238 178.314C385.771 178.457 386.32 178.141 386.463 177.608L384.532 177.088ZM384.37 185.182C384.521 184.651 384.212 184.098 383.681 183.947C383.15 183.796 382.597 184.105 382.446 184.636L384.37 185.182ZM380.226 192.26C380.068 192.789 380.368 193.347 380.898 193.505C381.427 193.663 381.984 193.362 382.142 192.833L380.226 192.26ZM379.804 200.459C379.97 199.932 379.677 199.37 379.15 199.205C378.623 199.039 378.062 199.332 377.896 199.859L379.804 200.459ZM375.482 207.35C375.308 207.875 375.593 208.44 376.118 208.614C376.642 208.787 377.208 208.502 377.381 207.978L375.482 207.35ZM374.86 215.427C375.041 214.905 374.765 214.336 374.243 214.155C373.721 213.974 373.151 214.251 372.97 214.772L374.86 215.427ZM370.298 222.301C370.109 222.82 370.377 223.394 370.896 223.583C371.415 223.771 371.989 223.504 372.178 222.984L370.298 222.301ZM369.409 230.424C369.605 229.908 369.346 229.33 368.83 229.133C368.314 228.937 367.736 229.196 367.54 229.712L369.409 230.424ZM364.697 237.003C364.493 237.516 364.743 238.097 365.256 238.302C365.769 238.507 366.351 238.256 366.555 237.743L364.697 237.003ZM363.54 245.133C363.753 244.623 363.512 244.037 363.002 243.825C362.493 243.612 361.907 243.852 361.694 244.362L363.54 245.133ZM358.576 251.662C358.355 252.168 358.586 252.757 359.092 252.979C359.598 253.2 360.188 252.969 360.409 252.463L358.576 251.662ZM357.193 259.66C357.423 259.158 357.201 258.565 356.699 258.335C356.197 258.106 355.603 258.327 355.374 258.829L357.193 259.66ZM352.036 265.976C351.797 266.474 352.009 267.071 352.507 267.309C353.005 267.547 353.602 267.336 353.84 266.838L352.036 265.976ZM350.33 274.024C350.577 273.529 350.377 272.929 349.883 272.682C349.388 272.435 348.788 272.636 348.541 273.13L350.33 274.024ZM344.962 280.137C344.707 280.626 344.896 281.23 345.386 281.486C345.876 281.741 346.48 281.552 346.735 281.062L344.962 280.137ZM343.021 288.019C343.286 287.534 343.107 286.927 342.623 286.662C342.138 286.398 341.53 286.576 341.266 287.061L343.021 288.019ZM337.377 294.026C337.104 294.505 337.27 295.116 337.75 295.39C338.23 295.664 338.84 295.497 339.114 295.018L337.377 294.026ZM335.123 301.852C335.406 301.378 335.251 300.764 334.777 300.481C334.303 300.198 333.689 300.353 333.406 300.827L335.123 301.852ZM329.322 307.513C329.029 307.981 329.172 308.598 329.64 308.891C330.108 309.184 330.725 309.041 331.018 308.573L329.322 307.513ZM326.696 315.332C326.998 314.87 326.869 314.25 326.407 313.947C325.945 313.645 325.325 313.774 325.022 314.237L326.696 315.332ZM320.641 320.777C320.329 321.233 320.445 321.855 320.901 322.167C321.356 322.48 321.979 322.364 322.291 321.908L320.641 320.777ZM317.759 328.365C318.081 327.917 317.979 327.292 317.53 326.969C317.082 326.647 316.457 326.749 316.135 327.198L317.759 328.365ZM311.408 333.616C311.076 334.057 311.163 334.684 311.604 335.017C312.045 335.349 312.672 335.262 313.005 334.821L311.408 333.616ZM308.17 341.072C308.513 340.639 308.44 340.01 308.007 339.667C307.574 339.324 306.946 339.397 306.602 339.829L308.17 341.072ZM301.632 345.942C301.278 346.366 301.335 346.997 301.759 347.351C302.184 347.704 302.814 347.647 303.168 347.223L301.632 345.942ZM297.967 353.297C298.332 352.882 298.291 352.25 297.876 351.886C297.461 351.521 296.83 351.561 296.465 351.976L297.967 353.297ZM291.222 357.781C290.846 358.186 290.87 358.818 291.275 359.194C291.68 359.57 292.312 359.546 292.688 359.141L291.222 357.781ZM287.171 364.922C287.558 364.528 287.552 363.895 287.158 363.508C286.764 363.121 286.131 363.126 285.744 363.52L287.171 364.922ZM280.127 369.074C279.728 369.457 279.715 370.09 280.098 370.488C280.48 370.887 281.113 370.9 281.512 370.517L280.127 369.074ZM275.752 375.881C276.162 375.511 276.194 374.878 275.824 374.468C275.454 374.059 274.822 374.026 274.412 374.396L275.752 375.881ZM268.411 379.641C267.989 379.997 267.936 380.628 268.293 381.05C268.65 381.472 269.28 381.525 269.702 381.168L268.411 379.641ZM263.582 386.169C264.016 385.827 264.09 385.198 263.748 384.764C263.406 384.331 262.777 384.257 262.343 384.599L263.582 386.169ZM256.053 389.385C255.607 389.712 255.511 390.338 255.837 390.783C256.164 391.229 256.79 391.325 257.235 390.999L256.053 389.385ZM250.724 395.587C251.182 395.278 251.302 394.656 250.992 394.198C250.682 393.741 250.061 393.621 249.603 393.931L250.724 395.587ZM243.037 398.193C242.568 398.484 242.424 399.101 242.715 399.57C243.007 400.039 243.623 400.183 244.092 399.891L243.037 398.193ZM237.199 403.98C237.679 403.708 237.849 403.098 237.577 402.617C237.306 402.137 236.696 401.967 236.215 402.239L237.199 403.98ZM229.343 405.93C228.851 406.181 228.655 406.783 228.906 407.275C229.156 407.767 229.758 407.963 230.251 407.712L229.343 405.93ZM223.016 411.191C223.519 410.964 223.742 410.371 223.515 409.868C223.287 409.365 222.694 409.142 222.191 409.369L223.016 411.191ZM214.981 412.428C214.468 412.632 214.216 413.213 214.419 413.726C214.623 414.24 215.204 414.491 215.717 414.288L214.981 412.428ZM208.217 417.042C208.74 416.865 209.021 416.297 208.843 415.774C208.666 415.251 208.099 414.971 207.576 415.148L208.217 417.042ZM200.075 417.47C199.543 417.619 199.233 418.171 199.383 418.703C199.532 419.235 200.084 419.545 200.616 419.396L200.075 417.47ZM192.886 421.339C193.425 421.219 193.765 420.685 193.645 420.146C193.525 419.607 192.991 419.267 192.452 419.387L192.886 421.339ZM184.733 420.872C184.188 420.96 183.818 421.474 183.907 422.019C183.996 422.564 184.509 422.934 185.055 422.846L184.733 420.872ZM177.16 423.893C177.709 423.837 178.109 423.346 178.052 422.796C177.996 422.247 177.505 421.847 176.956 421.904L177.16 423.893ZM169.116 422.468C168.564 422.491 168.135 422.957 168.158 423.508C168.181 424.06 168.647 424.489 169.199 424.466L169.116 422.468ZM161.233 424.55C161.785 424.561 162.242 424.123 162.253 423.57C162.264 423.018 161.826 422.561 161.274 422.55L161.233 424.55ZM153.431 422.142C152.881 422.096 152.397 422.505 152.351 423.055C152.305 423.605 152.714 424.089 153.264 424.135L153.431 422.142ZM145.342 423.219C145.888 423.3 146.396 422.923 146.477 422.376C146.558 421.83 146.18 421.322 145.634 421.241L145.342 423.219ZM137.916 419.852C137.376 419.737 136.845 420.082 136.73 420.622C136.615 421.163 136.96 421.694 137.5 421.808L137.916 419.852ZM129.738 419.904C130.27 420.052 130.821 419.741 130.969 419.209C131.117 418.677 130.806 418.125 130.274 417.977L129.738 419.904ZM122.807 415.649C122.285 415.469 121.716 415.746 121.535 416.268C121.355 416.79 121.632 417.359 122.154 417.54L122.807 415.649ZM114.649 414.694C115.159 414.905 115.744 414.662 115.955 414.152C116.166 413.641 115.923 413.057 115.413 412.845L114.649 414.694ZM108.304 409.665C107.806 409.425 107.209 409.634 106.969 410.132C106.729 410.629 106.938 411.227 107.436 411.467L108.304 409.665ZM100.286 407.772C100.769 408.039 101.377 407.863 101.644 407.38C101.911 406.896 101.736 406.288 101.252 406.021L100.286 407.772ZM94.5462 402.085C94.0773 401.793 93.4606 401.937 93.1689 402.406C92.8771 402.875 93.0208 403.492 93.4897 403.783L94.5462 402.085ZM86.7994 399.382C87.2531 399.697 87.8762 399.584 88.1911 399.13C88.5061 398.677 88.3937 398.054 87.94 397.739L86.7994 399.382ZM81.6055 393.113C81.1673 392.777 80.5396 392.859 80.2035 393.298C79.8674 393.736 79.9502 394.364 80.3885 394.7L81.6055 393.113ZM74.2046 389.732C74.6273 390.087 75.2582 390.032 75.6135 389.61C75.9689 389.187 75.9142 388.556 75.4914 388.201L74.2046 389.732ZM69.4942 382.934C69.0871 382.56 68.4545 382.588 68.0814 382.995C67.7082 383.402 67.7357 384.035 68.1428 384.408L69.4942 382.934ZM62.4823 379.009C62.8744 379.398 63.5076 379.395 63.8965 379.003C64.2854 378.611 64.2827 377.978 63.8906 377.589L62.4823 379.009ZM58.3589 371.889C57.9818 371.485 57.349 371.464 56.9455 371.841C56.542 372.218 56.5206 372.851 56.8978 373.254L58.3589 371.889ZM51.5775 367.354C51.9401 367.77 52.5717 367.814 52.9883 367.452C53.4049 367.089 53.4487 366.457 53.0861 366.041L51.5775 367.354ZM48.0587 360.066C47.7101 359.637 47.0803 359.573 46.6519 359.921C46.2236 360.27 46.1589 360.9 46.5075 361.328L48.0587 360.066ZM41.5139 354.986C41.8486 355.425 42.4761 355.51 42.9154 355.175C43.3547 354.84 43.4394 354.213 43.1047 353.773L41.5139 354.986ZM38.4669 347.496C38.1452 347.047 37.5205 346.944 37.0715 347.266C36.6226 347.588 36.5195 348.212 36.8412 348.661L38.4669 347.496ZM32.3348 342.182C32.6439 342.64 33.2655 342.761 33.7232 342.451C34.1808 342.142 34.3013 341.521 33.9922 341.063L32.3348 342.182ZM29.5896 334.349C29.2929 333.883 28.6748 333.746 28.209 334.043C27.7431 334.339 27.606 334.957 27.9026 335.423L29.5896 334.349ZM23.7666 328.746C24.0517 329.219 24.6662 329.371 25.1393 329.086C25.6123 328.801 25.7647 328.187 25.4796 327.714L23.7666 328.746ZM21.521 320.965C21.2472 320.486 20.6363 320.319 20.1568 320.593C19.6772 320.867 19.5104 321.478 19.7843 321.957L21.521 320.965ZM15.8727 314.921C16.1356 315.407 16.7424 315.588 17.2281 315.325C17.7138 315.062 17.8944 314.455 17.6315 313.969L15.8727 314.921ZM13.9057 306.816C13.6634 306.32 13.0647 306.114 12.5684 306.356C12.0721 306.598 11.8661 307.197 12.1084 307.693L13.9057 306.816ZM8.81365 300.368C9.02403 300.878 9.60853 301.122 10.1192 300.911C10.6298 300.701 10.8732 300.116 10.6629 299.606L8.81365 300.368ZM7.89369 292.206C7.71737 291.682 7.15014 291.401 6.62676 291.577C6.10338 291.754 5.82203 292.321 5.99836 292.844L7.89369 292.206ZM3.69313 285.149C3.83339 285.683 4.38013 286.002 4.9143 285.862C5.44848 285.722 5.76782 285.175 5.62757 284.641L3.69313 285.149ZM3.89044 276.937C3.78805 276.394 3.26509 276.037 2.72238 276.14C2.17967 276.242 1.82272 276.765 1.92511 277.308L3.89044 276.937ZM0.719164 269.36C0.782252 269.909 1.27818 270.303 1.82685 270.24C2.37552 270.177 2.76916 269.681 2.70607 269.132L0.719164 269.36ZM2.0915 261.267C2.06868 260.716 1.60284 260.287 1.05103 260.31C0.499218 260.332 0.0703872 260.798 0.0932104 261.35L2.0915 261.267ZM0.0577511 253.298C0.0397611 253.85 0.472655 254.312 1.02465 254.33C1.57664 254.348 2.0387 253.915 2.05669 253.363L0.0577511 253.298ZM2.6026 245.51C2.66113 244.961 2.26338 244.468 1.71421 244.41C1.16503 244.351 0.672392 244.749 0.613866 245.298L2.6026 245.51ZM1.7645 237.305C1.66585 237.848 2.02638 238.369 2.56978 238.468C3.11319 238.566 3.63368 238.206 3.73233 237.662L1.7645 237.305ZM5.40992 229.995C5.54707 229.46 5.22456 228.915 4.68957 228.778C4.15459 228.641 3.60972 228.964 3.47257 229.499L5.40992 229.995ZM5.76114 221.727C5.58667 222.251 5.87003 222.817 6.39403 222.991C6.91803 223.166 7.48425 222.882 7.65872 222.358L5.76114 221.727ZM10.3782 215.023C10.5873 214.512 10.3424 213.928 9.83125 213.719C9.32007 213.51 8.73618 213.755 8.5271 214.266L10.3782 215.023ZM11.8467 206.857C11.6046 207.354 11.8108 207.952 12.3072 208.194C12.8036 208.436 13.4023 208.23 13.6443 207.734L11.8467 206.857ZM17.2809 200.824C17.5527 200.344 17.3834 199.734 16.9027 199.462C16.422 199.19 15.8119 199.359 15.54 199.84L17.2809 200.824ZM19.7419 192.902C19.4421 193.366 19.575 193.985 20.0388 194.285C20.5026 194.585 21.1216 194.452 21.4215 193.988L19.7419 192.902ZM25.8491 187.538C26.1739 187.091 26.0751 186.466 25.6284 186.141C25.1817 185.816 24.5563 185.915 24.2315 186.362L25.8491 187.538ZM29.1478 179.964C28.8 180.393 28.8658 181.023 29.2949 181.371C29.7239 181.719 30.3536 181.653 30.7014 181.224L29.1478 179.964ZM35.8211 175.218C36.1894 174.806 36.1545 174.174 35.743 173.806C35.3315 173.437 34.6993 173.472 34.3309 173.884L35.8211 175.218ZM39.7952 168.058C39.4083 168.452 39.4142 169.085 39.8083 169.472C40.2025 169.859 40.8356 169.853 41.2225 169.459L39.7952 168.058ZM46.9752 163.852C47.379 163.475 47.4009 162.842 47.0241 162.439C46.6473 162.035 46.0145 162.013 45.6107 162.39L46.9752 163.852ZM51.4727 157.136C51.0542 157.497 51.0071 158.128 51.3675 158.547C51.7279 158.965 52.3593 159.012 52.7778 158.652L51.4727 157.136ZM58.9539 153.539C59.3859 153.195 59.4573 152.566 59.1133 152.134C58.7693 151.702 58.1402 151.63 57.7081 151.974L58.9539 153.539ZM64.0329 147.122C63.5888 147.45 63.4951 148.077 63.8235 148.521C64.1519 148.965 64.7781 149.058 65.2221 148.73L64.0329 147.122ZM71.6276 144.158C72.0823 143.844 72.1969 143.222 71.8835 142.767C71.5701 142.312 70.9474 142.198 70.4927 142.511L71.6276 144.158ZM77.282 137.993C76.8174 138.292 76.6828 138.911 76.9814 139.375C77.2799 139.84 77.8986 139.975 78.3632 139.676L77.282 137.993ZM85.0031 135.547C85.4763 135.262 85.629 134.648 85.3442 134.174C85.0594 133.701 84.4449 133.549 83.9717 133.833L85.0031 135.547ZM90.8452 129.827C90.3642 130.099 90.1944 130.709 90.4658 131.19C90.7373 131.671 91.3472 131.841 91.8282 131.569L90.8452 129.827ZM98.9431 127.681C99.4313 127.422 99.6175 126.817 99.3592 126.329C99.1009 125.841 98.4957 125.655 98.0076 125.913L98.9431 127.681ZM105.011 122.318C104.516 122.564 104.315 123.164 104.561 123.659C104.808 124.153 105.408 124.354 105.902 124.108L105.011 122.318ZM112.999 120.679C113.499 120.444 113.714 119.849 113.48 119.349C113.245 118.849 112.65 118.633 112.15 118.868L112.999 120.679ZM119.542 115.506C119.036 115.729 118.808 116.319 119.03 116.824C119.253 117.329 119.844 117.558 120.349 117.335L119.542 115.506ZM127.642 114.211C128.152 113.998 128.394 113.413 128.182 112.903C127.969 112.393 127.384 112.152 126.874 112.364L127.642 114.211ZM134.164 109.417C133.65 109.619 133.397 110.199 133.599 110.714C133.801 111.228 134.381 111.481 134.896 111.279L134.164 109.417ZM142.37 108.428C142.887 108.236 143.152 107.661 142.96 107.143C142.768 106.625 142.193 106.361 141.675 106.553L142.37 108.428ZM149.395 103.777C148.873 103.959 148.598 104.529 148.78 105.051C148.962 105.572 149.532 105.847 150.054 105.665L149.395 103.777ZM157.376 103.181C157.901 103.008 158.186 102.442 158.013 101.918C157.84 101.393 157.274 101.108 156.75 101.281L157.376 103.181ZM164.297 98.8618C163.769 99.026 163.475 99.5866 163.639 100.114C163.803 100.641 164.364 100.936 164.891 100.771L164.297 98.8618ZM172.6 98.4396C173.13 98.284 173.433 97.7282 173.278 97.1983C173.122 96.6684 172.566 96.365 172.036 96.5206L172.6 98.4396ZM179.84 94.2956C179.308 94.4429 178.996 94.9938 179.143 95.5261C179.29 96.0583 179.841 96.3704 180.373 96.2231L179.84 94.2956ZM187.869 94.2072C188.403 94.0676 188.723 93.5213 188.583 92.9869C188.444 92.4526 187.897 92.1326 187.363 92.2722L187.869 94.2072ZM195.055 90.3207C194.518 90.4528 194.191 90.9946 194.323 91.5308C194.455 92.0671 194.997 92.3947 195.533 92.2627L195.055 90.3207ZM203.367 90.3909C203.905 90.2663 204.24 89.729 204.115 89.191C203.991 88.653 203.453 88.3179 202.915 88.4425L203.367 90.3909ZM210.875 86.6546C210.336 86.772 209.993 87.3047 210.111 87.8444C210.228 88.384 210.761 88.7263 211.301 88.6088L210.875 86.6546ZM218.881 87.0081C219.422 86.8972 219.771 86.3688 219.66 85.8277C219.549 85.2867 219.02 84.9379 218.479 85.0487L218.881 87.0081ZM226.231 83.5098C225.689 83.6141 225.334 84.1383 225.438 84.6807C225.542 85.223 226.067 85.5781 226.609 85.4738L226.231 83.5098ZM234.486 84.0073C235.03 83.9094 235.391 83.3894 235.293 82.8459C235.195 82.3023 234.675 81.9411 234.132 82.039L234.486 84.0073ZM242.181 80.6375C241.636 80.7291 241.269 81.2448 241.361 81.7895C241.452 82.3341 241.968 82.7013 242.513 82.6097L242.181 80.6375ZM250.281 81.3464C250.827 81.2607 251.2 80.7489 251.114 80.2033C251.028 79.6577 250.516 79.2849 249.971 79.3706L250.281 81.3464ZM257.72 78.1944C257.174 78.2744 256.796 78.7823 256.876 79.3288C256.956 79.8752 257.464 80.2533 258.01 80.1732L257.72 78.1944ZM265.87 79.0626C266.417 78.9881 266.801 78.4841 266.726 77.9369C266.652 77.3897 266.148 77.0064 265.6 77.0809L265.87 79.0626ZM273.612 76.0313C273.064 76.1003 272.675 76.6005 272.744 77.1484C272.813 77.6964 273.314 78.0846 273.861 78.0156L273.612 76.0313ZM281.985 77.0331C282.533 76.9695 282.926 76.4732 282.863 75.9246C282.799 75.376 282.303 74.9828 281.754 75.0464L281.985 77.0331ZM289.485 74.1853C288.935 74.244 288.538 74.7368 288.596 75.2859C288.655 75.8351 289.148 76.2327 289.697 76.174L289.485 74.1853ZM297.496 75.3758C298.046 75.322 298.448 74.8328 298.394 74.2832C298.34 73.7335 297.851 73.3315 297.301 73.3853L297.496 75.3758ZM305.233 72.6439C304.683 72.6929 304.277 73.1786 304.326 73.7287C304.375 74.2788 304.86 74.685 305.41 74.636L305.233 72.6439ZM313.441 73.9553C313.992 73.911 314.402 73.4289 314.358 72.8783C314.314 72.3278 313.831 71.9175 313.281 71.9618L313.441 73.9553ZM321.445 71.3397C320.894 71.3794 320.48 71.8581 320.519 72.4089C320.559 72.9598 321.038 73.3742 321.589 73.3346L321.445 71.3397ZM329.382 72.8046C329.933 72.7693 330.351 72.2939 330.316 71.7427C330.28 71.1916 329.805 70.7734 329.254 70.8087L329.382 72.8046ZM337.078 70.3375C336.526 70.3686 336.105 70.8409 336.136 71.3923C336.167 71.9437 336.639 72.3655 337.19 72.3344L337.078 70.3375ZM345.102 71.9182C345.654 71.8913 346.079 71.4222 346.052 70.8706C346.025 70.319 345.556 69.8936 345.004 69.9206L345.102 71.9182ZM353.034 69.5585C352.482 69.5813 352.053 70.0472 352.076 70.599C352.099 71.1508 352.565 71.5796 353.117 71.5568L353.034 69.5585ZM361.234 71.2507C361.786 71.2319 362.218 70.7692 362.2 70.2173C362.181 69.6653 361.718 69.2331 361.166 69.2519L361.234 71.2507ZM369.201 69.0068C368.648 69.0217 368.213 69.4813 368.228 70.0334C368.243 70.5855 368.702 71.021 369.254 71.0061L369.201 69.0068ZM377.029 70.8223C377.581 70.8111 378.02 70.3544 378.009 69.8022C377.997 69.25 377.541 68.8115 376.989 68.8227L377.029 70.8223ZM384.867 68.6887C384.315 68.6963 383.874 69.1501 383.881 69.7023C383.889 70.2546 384.343 70.6961 384.895 70.6885L384.867 68.6887ZM392.852 70.6052C393.404 70.6012 393.849 70.1503 393.845 69.598C393.841 69.0457 393.39 68.6012 392.838 68.6052L392.852 70.6052ZM400.899 68.5729C400.347 68.5733 399.9 69.0214 399.9 69.5737C399.9 70.126 400.349 70.5733 400.901 70.5729L400.899 68.5729ZM409.041 70.5921C409.594 70.5952 410.044 70.1499 410.047 69.5977C410.05 69.0454 409.605 68.5952 409.053 68.5922L409.041 70.5921ZM417.026 68.6604C416.473 68.654 416.02 69.0965 416.014 69.6487C416.008 70.201 416.45 70.6539 417.002 70.6602L417.026 68.6604ZM424.791 70.773C425.343 70.7826 425.799 70.3427 425.808 69.7905C425.818 69.2383 425.378 68.7829 424.826 68.7733L424.791 70.773ZM432.707 68.9327C432.155 68.92 431.697 69.3573 431.684 69.9094C431.672 70.4615 432.109 70.9195 432.661 70.9322L432.707 68.9327ZM440.613 71.1383C441.165 71.1542 441.625 70.7195 441.641 70.1675C441.657 69.6154 441.222 69.155 440.67 69.1392L440.613 71.1383ZM448.715 69.393C448.163 69.374 447.7 69.8061 447.681 70.3581C447.662 70.91 448.094 71.3728 448.646 71.3918L448.715 69.393ZM456.761 71.693C457.313 71.715 457.778 71.2855 457.8 70.7336C457.823 70.1818 457.393 69.7166 456.841 69.6946L456.761 71.693ZM464.916 70.0384C464.365 70.0134 463.897 70.4405 463.872 70.9922C463.847 71.5439 464.274 72.0114 464.826 72.0364L464.916 70.0384ZM472.588 72.4075C473.139 72.4352 473.609 72.0106 473.637 71.459C473.665 70.9074 473.24 70.4378 472.688 70.41L472.588 72.4075ZM480.533 70.8247C479.982 70.7942 479.51 71.2165 479.479 71.7679C479.449 72.3193 479.871 72.7911 480.422 72.8217L480.533 70.8247ZM488.33 73.2793C488.881 73.3126 489.355 72.8927 489.388 72.3414C489.422 71.7901 489.002 71.3162 488.451 71.2829L488.33 73.2793ZM496.441 71.785C495.89 71.749 495.414 72.1666 495.378 72.7177C495.342 73.2688 495.76 73.7448 496.311 73.7808L496.441 71.785ZM504.365 74.3263C504.916 74.365 505.394 73.9497 505.432 73.3988C505.471 72.8479 505.056 72.3699 504.505 72.3313L504.365 74.3263ZM512.642 72.922C512.091 72.8807 511.611 73.2937 511.57 73.8444C511.529 74.3952 511.942 74.8751 512.493 74.9164L512.642 72.922ZM520.399 75.5279C520.95 75.5717 521.432 75.161 521.476 74.6104C521.52 74.0599 521.109 73.578 520.558 73.5342L520.399 75.5279ZM528.337 74.1711C527.787 74.1248 527.303 74.5334 527.257 75.0838C527.21 75.6341 527.619 76.1178 528.169 76.164L528.337 74.1711ZM536.004 76.8404C536.555 76.8891 537.04 76.4826 537.089 75.9324C537.137 75.3823 536.731 74.8969 536.181 74.8482L536.004 76.8404ZM544.09 75.5657C543.54 75.5146 543.053 75.919 543.002 76.4689C542.951 77.0188 543.355 77.5061 543.905 77.5571L544.09 75.5657ZM551.872 78.3147C552.421 78.3681 552.91 77.9659 552.964 77.4162C553.017 76.8665 552.615 76.3775 552.065 76.3241L551.872 78.3147ZM560.106 77.1235C559.557 77.0677 559.066 77.4678 559.01 78.0173C558.954 78.5668 559.354 79.0574 559.904 79.1132L560.106 77.1235ZM568.002 79.9531C568.551 80.0113 569.044 79.6132 569.102 79.0639C569.16 78.5147 568.762 78.0224 568.213 77.9642L568.002 79.9531ZM576.148 78.8205C575.599 78.7602 575.105 79.1562 575.045 79.7052C574.984 80.2542 575.38 80.7482 575.929 80.8085L576.148 78.8205ZM583.671 81.6752C584.22 81.7377 584.715 81.3435 584.778 80.7948C584.84 80.2461 584.446 79.7506 583.898 79.688L583.671 81.6752ZM591.706 80.5929C591.157 80.5283 590.66 80.9206 590.596 81.469C590.531 82.0175 590.923 82.5146 591.472 82.5792L591.706 80.5929ZM599.332 83.5208C599.88 83.5876 600.379 83.1972 600.445 82.649C600.512 82.1008 600.122 81.6022 599.573 81.5355L599.332 83.5208ZM607.5 82.5158C606.952 82.447 606.452 82.8354 606.383 83.3834C606.314 83.9314 606.703 84.4314 607.251 84.5003L607.5 82.5158ZM615.229 85.5178C615.777 85.5887 616.278 85.2021 616.349 84.6544C616.42 84.1067 616.033 83.6052 615.486 83.5343L615.229 85.5178ZM623.531 84.5911C622.983 84.5182 622.48 84.9028 622.407 85.4502C622.335 85.9977 622.719 86.5006 623.267 86.5736L623.531 84.5911ZM631.364 87.668C631.911 87.743 632.415 87.3602 632.49 86.813C632.565 86.2658 632.183 85.7615 631.635 85.6865L631.364 87.668ZM639.354 86.758C638.807 86.6811 638.301 87.0621 638.224 87.609C638.148 88.1559 638.529 88.6616 639.075 88.7385L639.354 86.758ZM646.815 89.8403C647.362 89.9191 647.869 89.5398 647.948 88.9931C648.027 88.4465 647.647 87.9395 647.101 87.8607L646.815 89.8403ZM654.901 88.9984C654.354 88.9177 653.846 89.2953 653.765 89.8416C653.685 90.388 654.062 90.8963 654.609 90.9769L654.901 88.9984ZM662.455 92.1487C663.001 92.2312 663.511 91.8554 663.593 91.3093C663.676 90.7632 663.3 90.2536 662.754 90.1711L662.455 92.1487ZM670.661 91.3792C670.115 91.2948 669.604 91.6689 669.52 92.2148C669.435 92.7606 669.81 93.2714 670.355 93.3557L670.661 91.3792ZM678.309 94.5982C678.854 94.6844 679.367 94.312 679.453 93.7664C679.539 93.2209 679.166 92.7088 678.621 92.6227L678.309 94.5982ZM686.635 93.9019C686.09 93.814 685.576 94.1847 685.488 94.7299C685.4 95.2751 685.771 95.7885 686.316 95.8764L686.635 93.9019ZM694.378 97.1905C694.923 97.2802 695.437 96.9112 695.527 96.3663C695.617 95.8214 695.248 95.3068 694.703 95.2171L694.378 97.1905ZM702.394 96.496C701.849 96.4046 701.334 96.772 701.242 97.3167C701.151 97.8613 701.518 98.377 702.063 98.4684L702.394 96.496ZM709.77 99.7745C710.315 99.8676 710.832 99.5017 710.925 98.9573C711.018 98.413 710.652 97.8962 710.108 97.8031L709.77 99.7745ZM717.869 99.1426C717.325 99.0479 716.807 99.4122 716.713 99.9563C716.618 100.5 716.982 101.018 717.526 101.113L717.869 99.1426ZM725.33 102.484C725.874 102.581 726.393 102.218 726.489 101.674C726.586 101.13 726.223 100.611 725.679 100.515L725.33 102.484ZM733.538 101.92C732.994 101.822 732.474 102.183 732.376 102.727C732.278 103.27 732.639 103.79 733.183 103.888L733.538 101.92ZM741.084 105.325C741.627 105.425 742.148 105.065 742.248 104.522C742.348 103.979 741.988 103.458 741.445 103.358L741.084 105.325ZM749.4 104.829C748.858 104.728 748.335 105.086 748.234 105.629C748.133 106.172 748.491 106.694 749.034 106.795L749.4 104.829ZM757.032 108.299C757.575 108.402 758.098 108.045 758.201 107.503C758.304 106.96 757.947 106.437 757.405 106.334L757.032 108.299ZM765.253 107.833C764.711 107.728 764.187 108.084 764.082 108.626C763.978 109.168 764.333 109.692 764.875 109.797L765.253 107.833ZM772.527 111.28C773.069 111.386 773.594 111.032 773.7 110.49C773.806 109.948 773.452 109.423 772.91 109.317L772.527 111.28ZM780.611 110.832C780.069 110.724 779.543 111.077 779.436 111.618C779.328 112.16 779.68 112.686 780.222 112.794L780.611 110.832ZM787.962 114.338C788.503 114.446 789.03 114.096 789.139 113.554C789.248 113.013 788.897 112.486 788.356 112.377L787.962 114.338ZM796.144 113.952C795.603 113.842 795.075 114.192 794.965 114.733C794.854 115.274 795.204 115.802 795.745 115.912L796.144 113.952ZM803.572 117.517C804.113 117.629 804.642 117.281 804.754 116.74C804.865 116.199 804.517 115.67 803.977 115.559L803.572 117.517ZM811.853 117.196C811.313 117.083 810.783 117.429 810.67 117.97C810.557 118.51 810.903 119.04 811.444 119.153L811.853 117.196ZM819.359 120.82C819.899 120.935 820.43 120.59 820.545 120.049C820.659 119.509 820.314 118.978 819.774 118.864L819.359 120.82ZM827.739 120.563C827.199 120.447 826.667 120.791 826.551 121.331C826.435 121.871 826.779 122.403 827.319 122.518L827.739 120.563ZM835.112 124.202C835.652 124.319 836.184 123.977 836.302 123.437C836.419 122.897 836.076 122.365 835.537 122.247L835.112 124.202ZM843.159 123.914C842.62 123.795 842.086 124.136 841.968 124.676C841.849 125.215 842.19 125.749 842.73 125.867L843.159 123.914ZM850.387 127.561C850.926 127.681 851.461 127.341 851.581 126.802C851.701 126.263 851.361 125.729 850.822 125.609L850.387 127.561ZM858.524 127.332C857.985 127.21 857.45 127.549 857.329 128.088C857.207 128.627 857.546 129.162 858.085 129.283L858.524 127.332ZM865.822 131.033C866.361 131.156 866.897 130.819 867.019 130.28C867.142 129.742 866.805 129.206 866.266 129.083L865.822 131.033ZM874.048 130.863C873.51 130.74 872.974 131.076 872.85 131.614C872.726 132.152 873.062 132.689 873.6 132.813L874.048 130.863ZM881.418 134.621C881.956 134.746 882.493 134.411 882.618 133.873C882.744 133.335 882.409 132.798 881.871 132.672L881.418 134.621ZM889.734 134.51C889.196 134.384 888.658 134.717 888.531 135.255C888.405 135.793 888.738 136.331 889.276 136.457L889.734 134.51ZM897.174 138.323C897.712 138.451 898.251 138.118 898.378 137.581C898.506 137.044 898.174 136.505 897.636 136.377L897.174 138.323ZM905.571 138.271C905.034 138.142 904.494 138.473 904.365 139.01C904.237 139.547 904.568 140.087 905.105 140.216L905.571 138.271ZM912.668 142.039C913.205 142.169 913.745 141.84 913.875 141.303C914.005 140.766 913.676 140.226 913.139 140.095L912.668 142.039ZM920.743 141.946C920.206 141.815 919.665 142.144 919.534 142.68C919.403 143.217 919.731 143.758 920.268 143.889L920.743 141.946ZM927.904 145.765C928.44 145.898 928.982 145.57 929.115 145.034C929.247 144.498 928.92 143.956 928.383 143.824L927.904 145.765ZM936.06 145.727C935.524 145.594 934.982 145.92 934.848 146.456C934.715 146.992 935.041 147.535 935.577 147.668L936.06 145.727ZM943.286 149.598C943.822 149.732 944.365 149.407 944.5 148.872C944.634 148.336 944.309 147.793 943.774 147.658L943.286 149.598ZM951.524 149.615C950.989 149.48 950.444 149.803 950.309 150.339C950.173 150.874 950.497 151.418 951.032 151.554L951.524 149.615ZM958.815 153.537C959.35 153.674 959.894 153.351 960.031 152.816C960.168 152.281 959.846 151.737 959.311 151.6L958.815 153.537ZM967.134 153.611C966.6 153.473 966.054 153.794 965.916 154.329C965.778 154.864 966.1 155.409 966.634 155.547L967.134 153.611ZM974.49 157.585C975.025 157.724 975.571 157.404 975.71 156.869C975.849 156.335 975.529 155.788 974.995 155.649L974.49 157.585ZM982.881 157.712C982.346 157.572 981.8 157.891 981.659 158.425C981.519 158.959 981.838 159.506 982.372 159.646L982.881 157.712ZM989.899 161.631C990.433 161.773 990.98 161.454 991.122 160.921C991.263 160.387 990.945 159.839 990.411 159.698L989.899 161.631ZM997.975 161.709C997.441 161.566 996.893 161.883 996.751 162.417C996.608 162.951 996.925 163.499 997.459 163.641L997.975 161.709ZM1005.05 165.676C1005.59 165.819 1006.13 165.503 1006.28 164.97C1006.42 164.436 1006.1 163.888 1005.57 163.744L1005.05 165.676ZM1013.2 165.805C1012.67 165.66 1012.12 165.975 1011.98 166.508C1011.83 167.041 1012.15 167.59 1012.68 167.735L1013.2 165.805ZM1020.34 169.819C1020.87 169.965 1021.42 169.651 1021.57 169.118C1021.71 168.585 1021.4 168.035 1020.87 167.89L1020.34 169.819ZM1028.56 170C1028.03 169.854 1027.48 170.167 1027.33 170.699C1027.19 171.232 1027.5 171.782 1028.03 171.929L1028.56 170ZM1035.76 174.063C1036.29 174.211 1036.84 173.899 1036.99 173.367C1037.14 172.835 1036.83 172.284 1036.29 172.136L1035.76 174.063ZM1044.06 174.297C1043.53 174.148 1042.98 174.459 1042.83 174.991C1042.68 175.523 1042.99 176.074 1043.52 176.223L1044.06 174.297ZM1051.32 178.408C1051.85 178.558 1052.4 178.248 1052.55 177.716C1052.7 177.185 1052.39 176.633 1051.86 176.483L1051.32 178.408ZM1059.69 178.695C1059.16 178.544 1058.6 178.853 1058.45 179.384C1058.3 179.915 1058.61 180.468 1059.14 180.619L1059.69 178.695ZM1067.18 182.909C1067.71 183.061 1068.26 182.755 1068.42 182.224C1068.57 181.693 1068.26 181.139 1067.73 180.987L1067.18 182.909ZM1075.79 183.334C1075.26 183.178 1074.71 183.481 1074.55 184.01C1074.39 184.54 1074.7 185.096 1075.23 185.252L1075.79 183.334ZM1083.05 187.587C1083.58 187.747 1084.14 187.447 1084.3 186.919C1084.45 186.39 1084.16 185.832 1083.63 185.672L1083.05 187.587ZM1091.24 188.001C1090.71 187.838 1090.15 188.133 1089.99 188.661C1089.83 189.188 1090.12 189.748 1090.65 189.912L1091.24 188.001ZM1098.03 192.227C1098.56 192.394 1099.12 192.103 1099.28 191.577C1099.45 191.051 1099.16 190.488 1098.63 190.321L1098.03 192.227ZM1106.16 192.747C1105.64 192.576 1105.07 192.862 1104.9 193.387C1104.73 193.912 1105.02 194.477 1105.54 194.648L1106.16 192.747ZM1113.54 197.301C1114.06 197.477 1114.63 197.196 1114.8 196.673C1114.98 196.149 1114.7 195.582 1114.18 195.405L1113.54 197.301ZM1121.9 198.051C1121.38 197.87 1120.81 198.146 1120.63 198.667C1120.45 199.189 1120.72 199.759 1121.24 199.94L1121.9 198.051ZM1128.67 202.567C1129.19 202.754 1129.76 202.484 1129.95 201.964C1130.14 201.445 1129.87 200.872 1129.35 200.685L1128.67 202.567ZM1136.51 203.306C1135.99 203.114 1135.42 203.377 1135.23 203.895C1135.03 204.412 1135.3 204.988 1135.81 205.181L1136.51 203.306ZM1143.65 208.155C1144.16 208.355 1144.74 208.099 1144.94 207.584C1145.14 207.069 1144.89 206.49 1144.37 206.29L1143.65 208.155ZM1152.05 209.329C1151.54 209.122 1150.96 209.369 1150.75 209.881C1150.54 210.393 1150.79 210.976 1151.3 211.183L1152.05 209.329ZM1158.58 214.193C1159.09 214.408 1159.68 214.17 1159.89 213.661C1160.11 213.152 1159.87 212.565 1159.36 212.35L1158.58 214.193ZM1166.33 215.364C1165.82 215.141 1165.23 215.369 1165.01 215.874C1164.78 216.379 1165.01 216.969 1165.52 217.193L1166.33 215.364ZM1173.28 220.729C1173.78 220.964 1174.37 220.749 1174.61 220.249C1174.84 219.749 1174.63 219.153 1174.13 218.919L1173.28 220.729ZM1181.42 222.449C1180.93 222.202 1180.33 222.403 1180.08 222.897C1179.84 223.392 1180.04 223.992 1180.53 224.239L1181.42 222.449ZM1187.29 227.721C1187.78 227.981 1188.39 227.796 1188.64 227.308C1188.9 226.821 1188.72 226.215 1188.23 225.956L1187.29 227.721ZM1195.58 230.029C1195.11 229.753 1194.49 229.916 1194.22 230.395C1193.94 230.873 1194.11 231.485 1194.58 231.761L1195.58 230.029ZM1201.45 235.903C1201.91 236.199 1202.53 236.06 1202.83 235.593C1203.12 235.126 1202.98 234.508 1202.52 234.213L1201.45 235.903ZM1208.98 238.511C1208.52 238.193 1207.9 238.303 1207.58 238.755C1207.27 239.207 1207.38 239.831 1207.83 240.148L1208.98 238.511ZM1214.49 245.141C1214.92 245.488 1215.55 245.42 1215.89 244.99C1216.24 244.559 1216.17 243.93 1215.74 243.584L1214.49 245.141ZM1221.53 248.612C1221.13 248.233 1220.49 248.251 1220.12 248.653C1219.74 249.054 1219.75 249.687 1220.16 250.066L1221.53 248.612ZM1225.87 256.093C1226.22 256.517 1226.85 256.574 1227.27 256.22C1227.7 255.866 1227.76 255.235 1227.4 254.811L1225.87 256.093ZM1232.07 261.327C1231.79 260.853 1231.17 260.699 1230.7 260.982C1230.22 261.265 1230.07 261.88 1230.35 262.353L1232.07 261.327ZM1233.61 269.388C1233.79 269.913 1234.35 270.199 1234.88 270.027C1235.4 269.854 1235.69 269.289 1235.51 268.765L1233.61 269.388ZM1236.99 276.962C1236.97 276.41 1236.51 275.976 1235.96 275.993C1235.4 276.01 1234.97 276.471 1234.99 277.023L1236.99 276.962ZM1234.09 284.601C1233.95 285.134 1234.27 285.683 1234.8 285.825C1235.33 285.968 1235.88 285.651 1236.03 285.117L1234.09 284.601ZM1232.91 292.742C1233.18 292.258 1233 291.65 1232.52 291.384C1232.03 291.118 1231.43 291.294 1231.16 291.778L1232.91 292.742ZM1226.65 298.405C1226.3 298.834 1226.36 299.464 1226.79 299.812C1227.22 300.16 1227.85 300.094 1228.2 299.666L1226.65 298.405ZM1222.8 305.511C1223.2 305.128 1223.21 304.495 1222.83 304.097C1222.44 303.7 1221.81 303.689 1221.41 304.073L1222.8 305.511ZM1215.39 309.351C1214.96 309.697 1214.89 310.326 1215.24 310.757C1215.58 311.187 1216.21 311.256 1216.64 310.91L1215.39 309.351ZM1210.14 315.765C1210.59 315.449 1210.7 314.826 1210.39 314.373C1210.07 313.92 1209.45 313.809 1209 314.124L1210.14 315.765ZM1202.33 318.5C1201.86 318.792 1201.72 319.408 1202.01 319.877C1202.3 320.346 1202.92 320.491 1203.39 320.199L1202.33 318.5ZM1196.4 324.328C1196.88 324.057 1197.05 323.447 1196.78 322.966C1196.51 322.485 1195.9 322.315 1195.42 322.586L1196.4 324.328ZM1188.36 326.398C1187.87 326.652 1187.68 327.256 1187.93 327.746C1188.18 328.236 1188.79 328.428 1189.28 328.173L1188.36 326.398ZM1182.09 331.766C1182.59 331.526 1182.79 330.928 1182.55 330.431C1182.31 329.933 1181.72 329.725 1181.22 329.964L1182.09 331.766ZM1173.84 333.408C1173.33 333.635 1173.11 334.227 1173.34 334.731C1173.56 335.234 1174.16 335.458 1174.66 335.231L1173.84 333.408ZM1167.39 338.42C1167.9 338.203 1168.13 337.616 1167.92 337.108C1167.7 336.6 1167.11 336.363 1166.6 336.58L1167.39 338.42ZM1159.08 339.704C1158.56 339.911 1158.32 340.494 1158.52 341.006C1158.73 341.518 1159.31 341.765 1159.83 341.558L1159.08 339.704ZM1152.38 344.493C1152.9 344.295 1153.16 343.716 1152.96 343.201C1152.76 342.685 1152.18 342.429 1151.67 342.627L1152.38 344.493ZM1144.16 345.453C1143.65 345.644 1143.38 346.219 1143.57 346.737C1143.76 347.255 1144.34 347.521 1144.86 347.33L1144.16 345.453ZM1137.14 350.112C1137.67 349.928 1137.94 349.357 1137.75 348.836C1137.57 348.315 1137 348.043 1136.48 348.227L1137.14 350.112ZM1129 350.82C1128.48 350.998 1128.2 351.566 1128.38 352.088C1128.55 352.611 1129.12 352.891 1129.64 352.713L1129 350.82ZM1121.98 355.274C1122.51 355.101 1122.79 354.536 1122.62 354.012C1122.45 353.487 1121.88 353.201 1121.36 353.373L1121.98 355.274ZM1113.64 355.864C1113.11 356.031 1112.82 356.593 1112.99 357.12C1113.15 357.646 1113.72 357.937 1114.24 357.77L1113.64 355.864ZM1106.62 360.149C1107.15 359.987 1107.45 359.428 1107.29 358.9C1107.12 358.372 1106.56 358.075 1106.04 358.238L1106.62 360.149ZM1098.32 360.574C1097.79 360.732 1097.49 361.289 1097.64 361.819C1097.8 362.348 1098.36 362.649 1098.89 362.491L1098.32 360.574ZM1091.11 364.777C1091.64 364.623 1091.95 364.068 1091.8 363.538C1091.64 363.007 1091.09 362.702 1090.56 362.856L1091.11 364.777ZM1082.87 365.052C1082.34 365.202 1082.03 365.754 1082.18 366.286C1082.33 366.817 1082.89 367.127 1083.42 366.977L1082.87 365.052ZM1075.64 369.141C1076.17 368.995 1076.49 368.445 1076.34 367.912C1076.19 367.38 1075.64 367.067 1075.11 367.213L1075.64 369.141ZM1067.31 369.33C1066.78 369.473 1066.46 370.021 1066.61 370.554C1066.75 371.088 1067.3 371.404 1067.83 371.261L1067.31 369.33ZM1060.08 373.316C1060.61 373.176 1060.93 372.629 1060.79 372.095C1060.65 371.561 1060.1 371.241 1059.57 371.381L1060.08 373.316ZM1051.78 373.398C1051.24 373.535 1050.92 374.08 1051.06 374.615C1051.19 375.15 1051.74 375.473 1052.27 375.336L1051.78 373.398ZM1044.44 377.319C1044.97 377.185 1045.3 376.642 1045.17 376.106C1045.03 375.571 1044.49 375.245 1043.95 375.379L1044.44 377.319ZM1036.16 377.311C1035.62 377.443 1035.29 377.984 1035.42 378.521C1035.56 379.057 1036.1 379.385 1036.63 379.254L1036.16 377.311ZM1028.81 381.154C1029.34 381.025 1029.67 380.485 1029.55 379.948C1029.42 379.411 1028.88 379.081 1028.34 379.21L1028.81 381.154ZM1020.51 381.074C1019.97 381.201 1019.64 381.739 1019.77 382.277C1019.89 382.814 1020.43 383.147 1020.97 383.021L1020.51 381.074ZM1013.11 384.856C1013.65 384.731 1013.99 384.194 1013.86 383.656C1013.74 383.118 1013.2 382.783 1012.66 382.908L1013.11 384.856ZM1004.82 384.707C1004.28 384.829 1003.94 385.365 1004.07 385.903C1004.19 386.442 1004.73 386.779 1005.26 386.657L1004.82 384.707ZM997.429 388.423C997.968 388.303 998.307 387.768 998.187 387.229C998.066 386.69 997.531 386.351 996.992 386.471L997.429 388.423ZM989.103 388.22C988.564 388.339 988.222 388.872 988.341 389.411C988.46 389.951 988.993 390.292 989.532 390.173L989.103 388.22ZM981.658 391.89C982.198 391.774 982.541 391.241 982.424 390.702C982.307 390.162 981.775 389.819 981.235 389.936L981.658 391.89ZM973.41 391.616C972.87 391.731 972.525 392.262 972.64 392.802C972.755 393.342 973.287 393.687 973.827 393.572L973.41 391.616ZM965.902 395.248C966.442 395.134 966.788 394.604 966.675 394.064C966.561 393.523 966.031 393.177 965.491 393.29L965.902 395.248ZM957.598 394.936C957.057 395.048 956.71 395.577 956.822 396.118C956.934 396.658 957.463 397.006 958.004 396.894L957.598 394.936ZM950.18 398.503C950.721 398.392 951.07 397.864 950.96 397.323C950.849 396.782 950.321 396.432 949.78 396.543L950.18 398.503ZM941.831 398.156C941.289 398.265 940.939 398.792 941.048 399.334C941.157 399.875 941.684 400.225 942.226 400.116L941.831 398.156ZM934.312 401.702C934.853 401.594 935.205 401.067 935.097 400.526C934.989 399.984 934.463 399.632 933.921 399.74L934.312 401.702ZM926.125 401.284C925.583 401.39 925.23 401.916 925.337 402.458C925.443 403 925.969 403.353 926.511 403.246L926.125 401.284ZM918.505 404.813C919.047 404.708 919.401 404.183 919.295 403.641C919.19 403.098 918.665 402.744 918.122 402.85L918.505 404.813ZM910.22 404.381C909.677 404.485 909.322 405.009 909.427 405.552C909.531 406.094 910.056 406.449 910.598 406.344L910.22 404.381ZM902.805 407.839C903.347 407.736 903.703 407.212 903.6 406.669C903.496 406.127 902.972 405.771 902.43 405.875L902.805 407.839ZM894.373 407.407C893.83 407.509 893.473 408.033 893.576 408.575C893.679 409.118 894.202 409.474 894.745 409.372L894.373 407.407ZM886.901 410.851C887.443 410.749 887.801 410.227 887.699 409.684C887.597 409.141 887.074 408.784 886.531 408.886L886.901 410.851ZM878.599 410.372C878.057 410.474 877.699 410.996 877.8 411.539C877.902 412.082 878.424 412.44 878.967 412.338L878.599 410.372ZM870.993 413.825C871.536 413.724 871.894 413.202 871.793 412.659C871.692 412.116 871.17 411.758 870.627 411.859L870.993 413.825ZM862.878 413.299C862.335 413.4 861.977 413.922 862.077 414.465C862.178 415.008 862.7 415.366 863.243 415.265L862.878 413.299ZM855.126 416.772C855.669 416.671 856.028 416.149 855.927 415.606C855.826 415.063 855.304 414.705 854.761 414.806L855.126 416.772ZM847.082 416.234C846.539 416.336 846.181 416.858 846.282 417.401C846.384 417.944 846.906 418.302 847.449 418.2L847.082 416.234ZM839.278 419.73C839.82 419.628 840.177 419.105 840.075 418.563C839.973 418.02 839.45 417.663 838.908 417.765L839.278 419.73ZM831.231 419.221C830.689 419.325 830.333 419.848 830.437 420.391C830.541 420.933 831.064 421.289 831.607 421.185L831.231 419.221ZM823.492 422.76C824.033 422.653 824.386 422.127 824.279 421.586C824.172 421.044 823.646 420.691 823.104 420.798L823.492 422.76ZM815.366 422.364C814.826 422.476 814.478 423.005 814.59 423.546C814.703 424.087 815.232 424.434 815.773 424.322L815.366 422.364ZM807.994 425.981C808.533 425.863 808.875 425.329 808.756 424.79C808.638 424.25 808.105 423.909 807.565 424.027L807.994 425.981ZM799.982 425.743C799.444 425.868 799.11 426.406 799.235 426.944C799.361 427.482 799.898 427.816 800.436 427.691L799.982 425.743ZM792.626 429.579C793.162 429.445 793.487 428.902 793.353 428.366C793.218 427.83 792.675 427.505 792.139 427.639L792.626 429.579ZM784.604 429.605C784.071 429.75 783.756 430.3 783.901 430.833C784.046 431.366 784.596 431.68 785.129 431.535L784.604 429.605ZM777.456 433.72C777.985 433.562 778.286 433.005 778.128 432.475C777.97 431.946 777.413 431.646 776.883 431.804L777.456 433.72ZM769.318 434.192C768.794 434.367 768.512 434.934 768.687 435.457C768.862 435.981 769.428 436.264 769.952 436.089L769.318 434.192ZM762.718 438.666C763.234 438.469 763.493 437.892 763.296 437.375C763.099 436.859 762.522 436.6 762.006 436.797L762.718 438.666ZM754.518 439.895C754.014 440.123 753.79 440.715 754.018 441.218C754.245 441.722 754.837 441.945 755.341 441.718L754.518 439.895ZM748.335 445.233C748.816 444.963 748.987 444.353 748.716 443.872C748.446 443.39 747.836 443.219 747.355 443.49L748.335 445.233ZM740.635 447.853C740.196 448.187 740.111 448.815 740.445 449.254C740.78 449.694 741.408 449.779 741.847 449.444L740.635 447.853ZM736.34 454.639C736.691 454.213 736.629 453.583 736.202 453.232C735.776 452.881 735.146 452.943 734.795 453.369L736.34 454.639ZM730.753 460.544C730.58 461.069 730.865 461.634 731.389 461.807C731.914 461.98 732.479 461.695 732.652 461.17L730.753 460.544ZM731.801 468.585C731.76 468.034 731.28 467.621 730.729 467.662C730.178 467.703 729.765 468.183 729.806 468.734L731.801 468.585ZM731.534 476.627C731.714 477.149 732.284 477.425 732.806 477.245C733.328 477.064 733.604 476.494 733.424 475.973L731.534 476.627ZM736.541 483.084C736.287 482.593 735.683 482.402 735.193 482.656C734.703 482.911 734.511 483.514 734.766 484.004L736.541 483.084ZM738.767 490.945C739.06 491.413 739.677 491.554 740.145 491.261C740.613 490.968 740.755 490.351 740.461 489.883L738.767 490.945ZM744.805 496.442C744.491 495.988 743.868 495.875 743.414 496.189C742.96 496.504 742.846 497.127 743.161 497.581L744.805 496.442ZM747.76 504.031C748.086 504.477 748.711 504.574 749.157 504.249C749.603 503.923 749.701 503.298 749.375 502.851L747.76 504.031ZM754.065 509.187C753.734 508.744 753.107 508.654 752.665 508.985C752.223 509.315 752.132 509.942 752.463 510.384L754.065 509.187ZM757.207 516.707C757.539 517.149 758.166 517.238 758.607 516.906C759.049 516.575 759.138 515.948 758.806 515.506L757.207 516.707ZM763.553 521.852C763.224 521.409 762.597 521.317 762.154 521.646C761.711 521.976 761.619 522.602 761.948 523.045L763.553 521.852ZM766.651 529.433C766.976 529.879 767.601 529.978 768.048 529.653C768.495 529.328 768.593 528.703 768.268 528.256L766.651 529.433ZM772.878 534.683C772.559 534.232 771.935 534.125 771.484 534.443C771.033 534.761 770.925 535.385 771.244 535.837L772.878 534.683ZM775.724 542.305C776.034 542.762 776.656 542.881 777.112 542.571C777.569 542.261 777.688 541.639 777.378 541.182L775.724 542.305ZM781.77 547.801C781.47 547.337 780.851 547.205 780.387 547.505C779.924 547.805 779.791 548.424 780.091 548.888L781.77 547.801ZM784.312 555.577C784.601 556.048 785.217 556.195 785.688 555.906C786.159 555.617 786.306 555.001 786.017 554.531L784.312 555.577ZM790.061 561.318C789.785 560.839 789.173 560.676 788.695 560.952C788.217 561.228 788.053 561.84 788.329 562.318L790.061 561.318ZM792.176 569.203C792.439 569.689 793.045 569.87 793.531 569.608C794.017 569.346 794.199 568.739 793.937 568.253L792.176 569.203ZM797.608 575.315C797.361 574.821 796.76 574.621 796.267 574.868C795.773 575.115 795.572 575.716 795.819 576.21L797.608 575.315ZM799.214 583.281C799.445 583.783 800.038 584.002 800.54 583.771C801.042 583.541 801.262 582.947 801.031 582.445L799.214 583.281ZM804.233 589.734C804.02 589.225 803.434 588.985 802.925 589.198C802.415 589.411 802.175 589.997 802.388 590.507L804.233 589.734ZM805.297 597.813C805.492 598.33 806.069 598.59 806.586 598.395C807.102 598.2 807.363 597.623 807.168 597.107L805.297 597.813ZM809.832 604.576C809.656 604.052 809.089 603.77 808.565 603.946C808.042 604.122 807.76 604.689 807.936 605.213L809.832 604.576ZM810.313 612.758C810.469 613.288 811.025 613.591 811.555 613.435C812.085 613.279 812.388 612.723 812.232 612.193L810.313 612.758ZM814.316 619.808C814.181 619.273 813.637 618.949 813.101 619.084C812.566 619.22 812.242 619.764 812.377 620.299L814.316 619.808ZM814.169 627.998C814.284 628.538 814.815 628.883 815.355 628.769C815.896 628.654 816.24 628.123 816.126 627.583L814.169 627.998ZM817.619 635.349C817.525 634.805 817.008 634.439 816.463 634.533C815.919 634.627 815.554 635.144 815.648 635.688L817.619 635.349ZM816.835 643.482C816.907 644.029 817.41 644.414 817.958 644.342C818.505 644.269 818.89 643.767 818.817 643.219L816.835 643.482ZM819.709 651.1C819.657 650.55 819.17 650.146 818.62 650.198C818.07 650.249 817.666 650.737 817.717 651.286L819.709 651.1ZM818.303 659.133C818.334 659.685 818.806 660.107 819.357 660.076C819.909 660.045 820.331 659.573 820.3 659.022L818.303 659.133ZM820.594 666.958C820.584 666.406 820.128 665.966 819.576 665.977C819.024 665.987 818.584 666.443 818.595 666.995L820.594 666.958ZM406.715 1C406.715 2.33757 406.712 3.67282 406.705 5.00573L408.705 5.01614C408.712 3.67975 408.715 2.34104 408.715 1H406.715ZM406.622 12.9751C406.58 15.6221 406.525 18.2597 406.457 20.8878L408.456 20.94C408.525 18.3049 408.58 15.6604 408.621 13.0064L406.622 12.9751ZM406.211 28.7432C406.114 31.3695 406.005 33.9861 405.882 36.5927L407.88 36.687C408.003 34.0733 408.113 31.4497 408.209 28.8163L406.211 28.7432ZM405.462 44.5665C405.308 47.214 405.14 49.851 404.959 52.4774L406.954 52.6153C407.136 49.9816 407.304 47.3373 407.458 44.6826L405.462 44.5665ZM404.373 60.3248C404.164 62.9352 403.942 65.5349 403.706 68.1237L405.697 68.3054C405.934 65.7093 406.157 63.1022 406.367 60.4845L404.373 60.3248ZM402.934 76.0802C402.663 78.7208 402.378 81.3497 402.079 83.9669L404.066 84.194C404.366 81.5692 404.652 78.9327 404.924 76.2845L402.934 76.0802ZM401.14 91.7831C400.813 94.3797 400.472 96.9644 400.118 99.5371L402.099 99.8098C402.455 97.2295 402.796 94.6372 403.124 92.033L401.14 91.7831ZM398.98 107.452C398.587 110.077 398.179 112.689 397.758 115.288L399.732 115.609C400.155 113.001 400.563 110.381 400.958 107.748L398.98 107.452ZM396.451 123.047C396 125.631 395.535 128.202 395.056 130.759L397.022 131.127C397.502 128.562 397.969 125.983 398.421 123.391L396.451 123.047ZM393.537 138.603C393.016 141.204 392.481 143.79 391.932 146.361L393.888 146.779C394.439 144.199 394.975 141.605 395.498 138.996L393.537 138.603ZM390.243 154.032C389.66 156.604 389.062 159.161 388.451 161.703L390.395 162.17C391.009 159.62 391.608 157.055 392.194 154.475L390.243 154.032ZM386.534 169.443C385.881 172.008 385.213 174.556 384.532 177.088L386.463 177.608C387.147 175.067 387.817 172.51 388.472 169.937L386.534 169.443ZM382.446 184.636C381.72 187.195 380.98 189.736 380.226 192.26L382.142 192.833C382.899 190.3 383.642 187.749 384.37 185.182L382.446 184.636ZM377.896 199.859C377.105 202.374 376.3 204.871 375.482 207.35L377.381 207.978C378.203 205.489 379.01 202.983 379.804 200.459L377.896 199.859ZM372.97 214.772C372.094 217.302 371.203 219.811 370.298 222.301L372.178 222.984C373.086 220.485 373.981 217.966 374.86 215.427L372.97 214.772ZM367.54 229.712C366.606 232.162 365.659 234.592 364.697 237.003L366.555 237.743C367.52 235.324 368.471 232.884 369.409 230.424L367.54 229.712ZM361.694 244.362C360.669 246.817 359.63 249.251 358.576 251.662L360.409 252.463C361.467 250.041 362.511 247.598 363.54 245.133L361.694 244.362ZM355.374 258.829C354.275 261.235 353.162 263.617 352.036 265.976L353.84 266.838C354.972 264.469 356.09 262.076 357.193 259.66L355.374 258.829ZM348.541 273.13C347.362 275.49 346.169 277.826 344.962 280.137L346.735 281.062C347.948 278.741 349.146 276.394 350.33 274.024L348.541 273.13ZM341.266 287.061C339.984 289.41 338.688 291.731 337.377 294.026L339.114 295.018C340.431 292.712 341.733 290.379 343.021 288.019L341.266 287.061ZM333.406 300.827C332.058 303.084 330.696 305.312 329.322 307.513L331.018 308.573C332.4 306.361 333.768 304.121 335.123 301.852L333.406 300.827ZM325.022 314.237C323.576 316.447 322.115 318.628 320.641 320.777L322.291 321.908C323.773 319.747 325.241 317.554 326.696 315.332L325.022 314.237ZM316.135 327.198C314.573 329.371 312.997 331.511 311.408 333.616L313.005 334.821C314.603 332.703 316.188 330.551 317.759 328.365L316.135 327.198ZM306.602 339.829C304.959 341.903 303.302 343.941 301.632 345.942L303.168 347.223C304.848 345.209 306.516 343.158 308.17 341.072L306.602 339.829ZM296.465 351.976C294.73 353.949 292.982 355.885 291.222 357.781L292.688 359.141C294.46 357.232 296.22 355.283 297.967 353.297L296.465 351.976ZM285.744 363.52C283.884 365.414 282.011 367.266 280.127 369.074L281.512 370.517C283.41 368.695 285.297 366.83 287.171 364.922L285.744 363.52ZM274.412 374.396C272.423 376.192 270.423 377.94 268.411 379.641L269.702 381.168C271.731 379.453 273.748 377.691 275.752 375.881L274.412 374.396ZM262.343 384.599C260.257 386.245 258.16 387.841 256.053 389.385L257.235 390.999C259.362 389.44 261.478 387.83 263.582 386.169L262.343 384.599ZM249.603 393.931C247.424 395.406 245.235 396.827 243.037 398.193L244.092 399.891C246.313 398.512 248.524 397.077 250.724 395.587L249.603 393.931ZM236.215 402.239C233.932 403.528 231.641 404.759 229.343 405.93L230.251 407.712C232.575 406.528 234.891 405.284 237.199 403.98L236.215 402.239ZM222.191 409.369C219.794 410.454 217.39 411.474 214.981 412.428L215.717 414.288C218.157 413.321 220.59 412.289 223.016 411.191L222.191 409.369ZM207.576 415.148C205.08 415.993 202.579 416.767 200.075 417.47L200.616 419.396C203.154 418.683 205.688 417.898 208.217 417.042L207.576 415.148ZM192.452 419.387C189.881 419.958 187.308 420.453 184.733 420.872L185.055 422.846C187.667 422.421 190.278 421.918 192.886 421.339L192.452 419.387ZM176.956 421.904C174.342 422.171 171.729 422.36 169.116 422.468L169.199 424.466C171.852 424.357 174.506 424.165 177.16 423.893L176.956 421.904ZM161.274 422.55C158.657 422.496 156.042 422.36 153.431 422.142L153.264 424.135C155.917 424.357 158.574 424.495 161.233 424.55L161.274 422.55ZM145.634 421.241C143.056 420.86 140.483 420.398 137.916 419.852L137.5 421.808C140.108 422.363 142.722 422.833 145.342 423.219L145.634 421.241ZM130.274 417.977C127.778 417.281 125.288 416.506 122.807 415.649L122.154 417.54C124.674 418.409 127.202 419.197 129.738 419.904L130.274 417.977ZM115.413 412.845C113.034 411.862 110.664 410.802 108.304 409.665L107.436 411.467C109.83 412.62 112.235 413.695 114.649 414.694L115.413 412.845ZM101.252 406.021C99.0068 404.781 96.7711 403.469 94.5462 402.085L93.4897 403.783C95.7437 405.186 98.0093 406.515 100.286 407.772L101.252 406.021ZM87.94 397.739C85.8173 396.265 83.7055 394.723 81.6055 393.113L80.3885 394.7C82.5131 396.329 84.6504 397.89 86.7994 399.382L87.94 397.739ZM75.4914 388.201C73.4802 386.51 71.4809 384.755 69.4942 382.934L68.1428 384.408C70.1502 386.248 72.1711 388.022 74.2046 389.732L75.4914 388.201ZM63.8906 377.589C62.0344 375.748 60.1903 373.848 58.3589 371.889L56.8978 373.254C58.7461 375.232 60.6079 377.15 62.4823 379.009L63.8906 377.589ZM53.0861 366.041C51.3985 364.102 49.7225 362.11 48.0587 360.066L46.5075 361.328C48.1849 363.389 49.8751 365.398 51.5775 367.354L53.0861 366.041ZM43.1047 353.773C41.547 351.729 40.0009 349.637 38.4669 347.496L36.8412 348.661C38.3865 350.818 39.9442 352.926 41.5139 354.986L43.1047 353.773ZM33.9922 341.063C32.5125 338.872 31.0448 336.634 29.5896 334.349L27.9026 335.423C29.3674 337.723 30.8449 339.976 32.3348 342.182L33.9922 341.063ZM25.4796 327.714C24.1488 325.505 22.8292 323.256 21.521 320.965L19.7843 321.957C21.1001 324.261 22.4276 326.524 23.7666 328.746L25.4796 327.714ZM17.6315 313.969C16.9891 312.783 16.3498 311.586 15.7134 310.378L13.9441 311.311C14.5839 312.525 15.2267 313.728 15.8727 314.921L17.6315 313.969ZM15.7134 310.378C15.0903 309.196 14.4877 308.008 13.9057 306.816L12.1084 307.693C12.6994 308.904 13.3114 310.11 13.9441 311.311L15.7134 310.378ZM10.6629 299.606C9.6536 297.156 8.73012 294.688 7.89369 292.206L5.99836 292.844C6.84899 295.369 7.78789 297.878 8.81365 300.368L10.6629 299.606ZM5.62757 284.641C4.95661 282.085 4.37712 279.517 3.89044 276.937L1.92511 277.308C2.42057 279.934 3.0104 282.548 3.69313 285.149L5.62757 284.641ZM2.70607 269.132C2.40554 266.518 2.20021 263.896 2.0915 261.267L0.0932104 261.35C0.203951 264.028 0.413093 266.699 0.719164 269.36L2.70607 269.132ZM2.05669 253.363C2.14191 250.748 2.32342 248.13 2.6026 245.51L0.613866 245.298C0.329473 247.967 0.144568 250.634 0.0577511 253.298L2.05669 253.363ZM3.73233 237.662C4.19664 235.105 4.75539 232.548 5.40992 229.995L3.47257 229.499C2.80628 232.098 2.23735 234.701 1.7645 237.305L3.73233 237.662ZM7.65872 222.358C8.47469 219.908 9.38079 217.462 10.3782 215.023L8.5271 214.266C7.51294 216.746 6.59132 219.233 5.76114 221.727L7.65872 222.358ZM13.6443 207.734C14.7718 205.422 15.9836 203.118 17.2809 200.824L15.54 199.84C14.223 202.168 12.9922 204.508 11.8467 206.857L13.6443 207.734ZM21.4215 193.988C22.8187 191.827 24.2943 189.676 25.8491 187.538L24.2315 186.362C22.6556 188.529 21.1593 190.71 19.7419 192.902L21.4215 193.988ZM30.7014 181.224C32.3348 179.209 34.0411 177.206 35.8211 175.218L34.3309 173.884C32.5295 175.896 30.8021 177.924 29.1478 179.964L30.7014 181.224ZM41.2225 169.459C43.0711 167.575 44.9884 165.706 46.9752 163.852L45.6107 162.39C43.6029 164.263 41.6646 166.153 39.7952 168.058L41.2225 169.459ZM52.7778 158.652C54.774 156.933 56.8325 155.228 58.9539 153.539L57.7081 151.974C55.567 153.679 53.4887 155.4 51.4727 157.136L52.7778 158.652ZM65.2221 148.73C67.3025 147.191 69.4375 145.667 71.6276 144.158L70.4927 142.511C68.2846 144.033 66.1315 145.57 64.0329 147.122L65.2221 148.73ZM78.3632 139.676C80.5273 138.285 82.7404 136.909 85.0031 135.547L83.9717 133.833C81.6926 135.205 79.4628 136.592 77.282 137.993L78.3632 139.676ZM91.8282 131.569C94.1514 130.258 96.5229 128.962 98.9431 127.681L98.0076 125.913C95.5717 127.202 93.1844 128.507 90.8452 129.827L91.8282 131.569ZM105.902 124.108C108.226 122.951 110.591 121.808 112.999 120.679L112.15 118.868C109.728 120.003 107.349 121.154 105.011 122.318L105.902 124.108ZM120.349 117.335C122.741 116.28 125.172 115.238 127.642 114.211L126.874 112.364C124.391 113.397 121.947 114.444 119.542 115.506L120.349 117.335ZM134.896 111.279C137.35 110.315 139.841 109.365 142.37 108.428L141.675 106.553C139.135 107.494 136.631 108.449 134.164 109.417L134.896 111.279ZM150.054 105.665C152.463 104.825 154.903 103.996 157.376 103.181L156.75 101.281C154.266 102.101 151.815 102.933 149.395 103.777L150.054 105.665ZM164.891 100.771C167.428 99.9811 169.998 99.2037 172.6 98.4396L172.036 96.5206C169.424 97.2878 166.844 98.0683 164.297 98.8618L164.891 100.771ZM180.373 96.2231C182.844 95.5394 185.342 94.8674 187.869 94.2072L187.363 92.2722C184.827 92.9348 182.32 93.6093 179.84 94.2956L180.373 96.2231ZM195.533 92.2627C198.116 91.6265 200.727 91.0025 203.367 90.3909L202.915 88.4425C200.267 89.0562 197.647 89.6823 195.055 90.3207L195.533 92.2627ZM211.301 88.6088C213.803 88.0643 216.329 87.5306 218.881 87.0081L218.479 85.0487C215.92 85.5729 213.386 86.1083 210.875 86.6546L211.301 88.6088ZM226.609 85.4738C229.21 84.9736 231.835 84.4847 234.486 84.0073L234.132 82.039C231.473 82.5178 228.84 83.0081 226.231 83.5098L226.609 85.4738ZM242.513 82.6097C245.08 82.178 247.669 81.7568 250.281 81.3464L249.971 79.3706C247.352 79.7822 244.755 80.2045 242.181 80.6375L242.513 82.6097ZM258.01 80.1732C260.608 79.7925 263.228 79.4223 265.87 79.0626L265.6 77.0809C262.952 77.4415 260.325 77.8127 257.72 78.1944L258.01 80.1732ZM273.861 78.0156C276.547 77.6773 279.255 77.3498 281.985 77.0331L281.754 75.0464C279.018 75.3638 276.304 75.6922 273.612 76.0313L273.861 78.0156ZM289.697 76.174C292.277 75.8983 294.877 75.6322 297.496 75.3758L297.301 73.3853C294.676 73.6423 292.071 73.909 289.485 74.1853L289.697 76.174ZM305.41 74.636C308.068 74.3992 310.745 74.1723 313.441 73.9553L313.281 71.9618C310.579 72.1792 307.896 72.4066 305.233 72.6439L305.41 74.636ZM321.589 73.3346C324.169 73.1489 326.766 72.9722 329.382 72.8046L329.254 70.8087C326.633 70.9766 324.031 71.1537 321.445 71.3397L321.589 73.3346ZM337.19 72.3344C339.811 72.1866 342.448 72.0478 345.102 71.9182L345.004 69.9206C342.345 70.0505 339.703 70.1895 337.078 70.3375L337.19 72.3344ZM353.117 71.5568C355.805 71.4455 358.511 71.3434 361.234 71.2507L361.166 69.2519C358.438 69.3447 355.727 69.447 353.034 69.5585L353.117 71.5568ZM369.254 71.0061C371.831 70.9365 374.422 70.8753 377.029 70.8223L376.989 68.8227C374.377 68.8758 371.781 68.9372 369.201 69.0068L369.254 71.0061ZM384.895 70.6885C387.532 70.6523 390.184 70.6245 392.852 70.6052L392.838 68.6052C390.166 68.6246 387.509 68.6524 384.867 68.6887L384.895 70.6885ZM400.901 70.5729C403.599 70.5707 406.313 70.5771 409.041 70.5921L409.053 68.5922C406.319 68.5771 403.602 68.5707 400.899 68.5729L400.901 70.5729ZM417.002 70.6602C419.585 70.6901 422.181 70.7277 424.791 70.773L424.826 68.7733C422.212 68.7279 419.612 68.6903 417.026 68.6604L417.002 70.6602ZM432.661 70.9322C435.298 70.9931 437.948 71.0618 440.613 71.1383L440.67 69.1392C438.002 69.0625 435.348 68.9937 432.707 68.9327L432.661 70.9322ZM448.646 71.3918C451.337 71.4842 454.043 71.5846 456.761 71.693L456.841 69.6946C454.119 69.586 451.41 69.4855 448.715 69.393L448.646 71.3918ZM464.826 72.0364C467.401 72.1529 469.988 72.2766 472.588 72.4075L472.688 70.41C470.086 70.279 467.495 70.1551 464.916 70.0384L464.826 72.0364ZM480.422 72.8217C483.046 72.967 485.682 73.1195 488.33 73.2793L488.451 71.2829C485.799 71.1229 483.16 70.9702 480.533 70.8247L480.422 72.8217ZM496.311 73.7808C498.983 73.9552 501.668 74.1371 504.365 74.3263L504.505 72.3313C501.805 72.1418 499.117 71.9597 496.441 71.785L496.311 73.7808ZM512.493 74.9164C515.117 75.1133 517.752 75.3171 520.399 75.5279L520.558 73.5342C517.908 73.3232 515.269 73.1191 512.642 72.922L512.493 74.9164ZM528.169 76.164C530.77 76.3828 533.382 76.6082 536.004 76.8404L536.181 74.8482C533.555 74.6157 530.941 74.3901 528.337 74.1711L528.169 76.164ZM543.905 77.5571C546.55 77.8028 549.205 78.0553 551.872 78.3147L552.065 76.3241C549.396 76.0645 546.738 75.8117 544.09 75.5657L543.905 77.5571ZM559.904 79.1132C562.592 79.3863 565.292 79.6663 568.002 79.9531L568.213 77.9642C565.499 77.6771 562.797 77.3968 560.106 77.1235L559.904 79.1132ZM575.929 80.8085C578.5 81.0912 581.081 81.3801 583.671 81.6752L583.898 79.688C581.305 79.3927 578.721 79.1035 576.148 78.8205L575.929 80.8085ZM591.472 82.5792C594.082 82.8868 596.702 83.2007 599.332 83.5208L599.573 81.5355C596.941 81.215 594.319 80.9008 591.706 80.5929L591.472 82.5792ZM607.251 84.5003C609.9 84.8331 612.56 85.1722 615.229 85.5178L615.486 83.5343C612.814 83.1884 610.152 82.849 607.5 82.5158L607.251 84.5003ZM623.267 86.5736C625.956 86.9319 628.655 87.2967 631.364 87.668L631.635 85.6865C628.924 85.3149 626.222 84.9498 623.531 84.5911L623.267 86.5736ZM639.075 88.7385C641.647 89.1 644.227 89.4672 646.815 89.8403L647.101 87.8607C644.51 87.4873 641.927 87.1198 639.354 86.758L639.075 88.7385ZM654.609 90.9769C657.215 91.3617 659.831 91.7522 662.455 92.1487L662.754 90.1711C660.127 89.7743 657.509 89.3834 654.901 88.9984L654.609 90.9769ZM670.355 93.3557C672.998 93.764 675.649 94.1781 678.309 94.5982L678.621 92.6227C675.959 92.2022 673.305 91.7878 670.661 91.3792L670.355 93.3557ZM686.316 95.8764C688.995 96.3084 691.682 96.7465 694.378 97.1905L694.703 95.2171C692.004 94.7727 689.315 94.3343 686.635 93.9019L686.316 95.8764ZM702.063 98.4684C704.624 98.8984 707.193 99.3337 709.77 99.7745L710.108 97.8031C707.528 97.362 704.957 96.9263 702.394 96.496L702.063 98.4684ZM717.526 101.113C720.12 101.565 722.721 102.022 725.33 102.484L725.679 100.515C723.068 100.052 720.465 99.5946 717.869 99.1426L717.526 101.113ZM733.183 103.888C735.809 104.362 738.442 104.841 741.084 105.325L741.445 103.358C738.801 102.873 736.165 102.394 733.538 101.92L733.183 103.888ZM749.034 106.795C751.692 107.291 754.358 107.792 757.032 108.299L757.405 106.334C754.728 105.827 752.06 105.325 749.4 104.829L749.034 106.795ZM764.875 109.797C767.418 110.286 769.969 110.781 772.527 111.28L772.91 109.317C770.351 108.817 767.798 108.323 765.253 107.833L764.875 109.797ZM780.222 112.794C782.795 113.303 785.375 113.818 787.962 114.338L788.356 112.377C785.767 111.857 783.185 111.342 780.611 110.832L780.222 112.794ZM795.745 115.912C798.347 116.442 800.956 116.977 803.572 117.517L803.977 115.559C801.358 115.018 798.748 114.483 796.144 113.952L795.745 115.912ZM811.444 119.153C814.075 119.704 816.713 120.259 819.359 120.82L819.774 118.864C817.126 118.303 814.486 117.747 811.853 117.196L811.444 119.153ZM827.319 122.518C829.91 123.075 832.507 123.636 835.112 124.202L835.537 122.247C832.93 121.681 830.331 121.12 827.739 120.563L827.319 122.518ZM842.73 125.867C845.276 126.427 847.828 126.992 850.387 127.561L850.822 125.609C848.261 125.039 845.707 124.474 843.159 123.914L842.73 125.867ZM858.085 129.283C860.657 129.862 863.237 130.445 865.822 131.033L866.266 129.083C863.679 128.495 861.098 127.911 858.524 127.332L858.085 129.283ZM873.6 132.813C876.199 133.41 878.805 134.013 881.418 134.621L881.871 132.672C879.257 132.065 876.649 131.462 874.048 130.863L873.6 132.813ZM889.276 136.457C891.902 137.074 894.535 137.696 897.174 138.323L897.636 136.377C894.995 135.75 892.361 135.128 889.734 134.51L889.276 136.457ZM905.105 140.216C907.62 140.819 910.141 141.427 912.668 142.039L913.139 140.095C910.61 139.483 908.088 138.875 905.571 138.271L905.105 140.216ZM920.268 143.889C922.807 144.51 925.353 145.135 927.904 145.765L928.383 143.824C925.83 143.193 923.284 142.568 920.743 141.946L920.268 143.889ZM935.577 147.668C938.14 148.307 940.71 148.95 943.286 149.598L943.774 147.658C941.196 147.01 938.625 146.366 936.06 145.727L935.577 147.668ZM951.032 151.554C953.62 152.21 956.214 152.872 958.815 153.537L959.311 151.6C956.709 150.934 954.113 150.272 951.524 149.615L951.032 151.554ZM966.634 155.547C969.247 156.222 971.866 156.901 974.49 157.585L974.995 155.649C972.368 154.965 969.748 154.286 967.134 153.611L966.634 155.547ZM982.372 159.646C984.876 160.304 987.385 160.966 989.899 161.631L990.411 159.698C987.895 159.032 985.385 158.37 982.881 157.712L982.372 159.646ZM997.459 163.641C999.984 164.315 1002.52 164.993 1005.05 165.676L1005.57 163.744C1003.03 163.062 1000.5 162.383 997.975 161.709L997.459 163.641ZM1012.68 167.735C1015.23 168.426 1017.78 169.12 1020.34 169.819L1020.87 167.89C1018.31 167.191 1015.75 166.496 1013.2 165.805L1012.68 167.735ZM1028.03 171.929C1030.6 172.636 1033.18 173.348 1035.76 174.063L1036.29 172.136C1033.71 171.42 1031.13 170.708 1028.56 170L1028.03 171.929ZM1043.52 176.223C1046.11 176.947 1048.71 177.676 1051.32 178.408L1051.86 176.483C1049.25 175.75 1046.65 175.021 1044.06 174.297L1043.52 176.223ZM1059.14 180.619C1060.45 180.989 1061.76 181.361 1063.07 181.733L1063.62 179.81C1062.31 179.437 1061 179.065 1059.69 178.695L1059.14 180.619ZM1063.07 181.733C1064.45 182.125 1065.82 182.517 1067.18 182.909L1067.73 180.987C1066.37 180.595 1065 180.202 1063.62 179.81L1063.07 181.733ZM1075.23 185.252C1077.87 186.032 1080.48 186.81 1083.05 187.587L1083.63 185.672C1081.05 184.894 1078.44 184.115 1075.79 183.334L1075.23 185.252ZM1090.65 189.912C1093.15 190.685 1095.61 191.457 1098.03 192.227L1098.63 190.321C1096.21 189.549 1093.74 188.776 1091.24 188.001L1090.65 189.912ZM1105.54 194.648C1108.26 195.535 1110.92 196.419 1113.54 197.301L1114.18 195.405C1111.55 194.521 1108.88 193.635 1106.16 192.747L1105.54 194.648ZM1121.24 199.94C1123.77 200.818 1126.24 201.694 1128.67 202.567L1129.35 200.685C1126.91 199.809 1124.43 198.931 1121.9 198.051L1121.24 199.94ZM1135.81 205.181C1138.49 206.175 1141.1 207.167 1143.65 208.155L1144.37 206.29C1141.81 205.298 1139.19 204.304 1136.51 203.306L1135.81 205.181ZM1151.3 211.183C1153.79 212.189 1156.22 213.192 1158.58 214.193L1159.36 212.35C1156.98 211.346 1154.55 210.339 1152.05 209.329L1151.3 211.183ZM1165.52 217.193C1168.19 218.376 1170.77 219.555 1173.28 220.729L1174.13 218.919C1171.61 217.738 1169.01 216.553 1166.33 215.364L1165.52 217.193ZM1180.53 224.239C1182.87 225.404 1185.12 226.565 1187.29 227.721L1188.23 225.956C1186.04 224.791 1183.78 223.622 1181.42 222.449L1180.53 224.239ZM1194.58 231.761C1196.99 233.149 1199.27 234.53 1201.45 235.903L1202.52 234.213C1200.32 232.824 1198.01 231.429 1195.58 230.029L1194.58 231.761ZM1207.83 240.148C1210.22 241.824 1212.44 243.488 1214.49 245.141L1215.74 243.584C1213.65 241.901 1211.4 240.21 1208.98 238.511L1207.83 240.148ZM1220.16 250.066C1222.31 252.095 1224.21 254.104 1225.87 256.093L1227.4 254.811C1225.69 252.755 1223.73 250.689 1221.53 248.612L1220.16 250.066ZM1230.35 262.353C1231.77 264.732 1232.85 267.077 1233.61 269.388L1235.51 268.765C1234.7 266.299 1233.56 263.819 1232.07 261.327L1230.35 262.353ZM1234.99 277.023C1235.07 279.575 1234.76 282.1 1234.09 284.601L1236.03 285.117C1236.74 282.436 1237.07 279.716 1236.99 276.962L1234.99 277.023ZM1231.16 291.778C1229.93 294.003 1228.43 296.212 1226.65 298.405L1228.2 299.666C1230.04 297.393 1231.62 295.085 1232.91 292.742L1231.16 291.778ZM1221.41 304.073C1219.57 305.846 1217.57 307.606 1215.39 309.351L1216.64 310.91C1218.86 309.131 1220.92 307.332 1222.8 305.511L1221.41 304.073ZM1209 314.124C1206.89 315.595 1204.66 317.053 1202.33 318.5L1203.39 320.199C1205.74 318.735 1208 317.257 1210.14 315.765L1209 314.124ZM1195.42 322.586C1193.14 323.867 1190.79 325.137 1188.36 326.398L1189.28 328.173C1191.73 326.903 1194.1 325.621 1196.4 324.328L1195.42 322.586ZM1181.22 329.964C1178.82 331.121 1176.36 332.269 1173.84 333.408L1174.66 335.231C1177.19 334.085 1179.67 332.93 1182.09 331.766L1181.22 329.964ZM1166.6 336.58C1164.14 337.629 1161.63 338.671 1159.08 339.704L1159.83 341.558C1162.39 340.52 1164.91 339.474 1167.39 338.42L1166.6 336.58ZM1151.67 342.627C1149.2 343.576 1146.7 344.518 1144.16 345.453L1144.86 347.33C1147.4 346.392 1149.91 345.446 1152.38 344.493L1151.67 342.627ZM1136.48 348.227C1134.01 349.097 1131.52 349.962 1129 350.82L1129.64 352.713C1132.17 351.853 1134.67 350.986 1137.14 350.112L1136.48 348.227ZM1121.36 353.373C1118.81 354.21 1116.23 355.04 1113.64 355.864L1114.24 357.77C1116.85 356.945 1119.43 356.113 1121.98 355.274L1121.36 353.373ZM1106.04 358.238C1103.48 359.023 1100.91 359.802 1098.32 360.574L1098.89 362.491C1101.49 361.717 1104.06 360.936 1106.62 360.149L1106.04 358.238ZM1090.56 362.856C1088.01 363.593 1085.45 364.325 1082.87 365.052L1083.42 366.977C1086 366.249 1088.56 365.516 1091.11 364.777L1090.56 362.856ZM1075.11 367.213C1072.52 367.924 1069.92 368.63 1067.31 369.33L1067.83 371.261C1070.44 370.561 1073.05 369.854 1075.64 369.141L1075.11 367.213ZM1059.57 371.381C1056.98 372.059 1054.38 372.732 1051.78 373.398L1052.27 375.336C1054.88 374.668 1057.48 373.995 1060.08 373.316L1059.57 371.381ZM1043.95 375.379C1041.36 376.029 1038.76 376.673 1036.16 377.311L1036.63 379.254C1039.24 378.615 1041.84 377.97 1044.44 377.319L1043.95 375.379ZM1028.34 379.21C1025.73 379.837 1023.12 380.458 1020.51 381.074L1020.97 383.021C1023.58 382.404 1026.2 381.782 1028.81 381.154L1028.34 379.21ZM1012.66 382.908C1010.05 383.513 1007.43 384.113 1004.82 384.707L1005.26 386.657C1007.88 386.062 1010.5 385.462 1013.11 384.856L1012.66 382.908ZM996.992 386.471C994.358 387.06 991.728 387.643 989.103 388.22L989.532 390.173C992.159 389.596 994.792 389.012 997.429 388.423L996.992 386.471ZM981.235 389.936C978.619 390.502 976.01 391.062 973.41 391.616L973.827 393.572C976.429 393.017 979.04 392.457 981.658 391.89L981.235 389.936ZM965.491 393.29C962.849 393.845 960.217 394.394 957.598 394.936L958.004 396.894C960.624 396.352 963.258 395.803 965.902 395.248L965.491 393.29ZM949.78 396.543C947.115 397.087 944.464 397.625 941.831 398.156L942.226 400.116C944.861 399.585 947.513 399.047 950.18 398.503L949.78 396.543ZM933.921 399.74C931.303 400.262 928.703 400.776 926.125 401.284L926.511 403.246C929.091 402.738 931.692 402.223 934.312 401.702L933.921 399.74ZM918.122 402.85C915.462 403.368 912.828 403.878 910.22 404.381L910.598 406.344C913.207 405.842 915.843 405.331 918.505 404.813L918.122 402.85ZM902.43 405.875C899.71 406.394 897.023 406.905 894.373 407.407L894.745 409.372C897.396 408.87 900.084 408.359 902.805 407.839L902.43 405.875ZM886.531 408.886C883.844 409.391 881.199 409.886 878.599 410.372L878.967 412.338C881.567 411.852 884.213 411.357 886.901 410.851L886.531 408.886ZM870.627 411.859C867.99 412.35 865.405 412.83 862.878 413.299L863.243 415.265C865.771 414.796 868.355 414.316 870.993 413.825L870.627 411.859ZM854.761 414.806C852.127 415.295 849.566 415.771 847.082 416.234L847.449 418.2C849.932 417.737 852.492 417.261 855.126 416.772L854.761 414.806ZM838.908 417.765C836.235 418.268 833.673 418.753 831.231 419.221L831.607 421.185C834.047 420.718 836.606 420.233 839.278 419.73L838.908 417.765ZM823.104 420.798C821.836 421.049 820.612 421.293 819.434 421.531L819.83 423.491C821.005 423.254 822.226 423.01 823.492 422.76L823.104 420.798ZM819.434 421.531C818.059 421.809 816.703 422.086 815.366 422.364L815.773 424.322C817.106 424.045 818.458 423.768 819.83 423.491L819.434 421.531ZM807.565 424.027C804.961 424.599 802.433 425.171 799.982 425.743L800.436 427.691C802.879 427.121 805.397 426.551 807.994 425.981L807.565 424.027ZM792.139 427.639C789.533 428.293 787.022 428.948 784.604 429.605L785.129 431.535C787.533 430.882 790.031 430.23 792.626 429.579L792.139 427.639ZM776.883 431.804C774.234 432.596 771.713 433.392 769.318 434.192L769.952 436.089C772.325 435.296 774.825 434.506 777.456 433.72L776.883 431.804ZM762.006 436.797C759.322 437.819 756.829 438.851 754.518 439.895L755.341 441.718C757.611 440.693 760.067 439.676 762.718 438.666L762.006 436.797ZM747.355 443.49C744.821 444.914 742.587 446.367 740.635 447.853L741.847 449.444C743.714 448.022 745.868 446.62 748.335 445.233L747.355 443.49ZM734.795 453.369C732.905 455.668 731.573 458.055 730.753 460.544L732.652 461.17C733.388 458.938 734.592 456.766 736.34 454.639L734.795 453.369ZM729.806 468.734C729.998 471.291 730.597 473.919 731.534 476.627L733.424 475.973C732.531 473.392 731.977 470.935 731.801 468.585L729.806 468.734ZM734.766 484.004C735.932 486.253 737.275 488.564 738.767 490.945L740.461 489.883C738.992 487.537 737.677 485.273 736.541 483.084L734.766 484.004ZM743.161 497.581C744.611 499.676 746.15 501.825 747.76 504.031L749.375 502.851C747.772 500.655 746.244 498.52 744.805 496.442L743.161 497.581ZM752.463 510.384C754.002 512.442 755.587 514.55 757.207 516.707L758.806 515.506C757.185 513.347 755.602 511.242 754.065 509.187L752.463 510.384ZM761.948 523.045C763.497 525.129 765.068 527.257 766.651 529.433L768.268 528.256C766.68 526.073 765.105 523.939 763.553 521.852L761.948 523.045ZM771.244 535.837C772.735 537.95 774.23 540.105 775.724 542.305L777.378 541.182C775.878 538.971 774.375 536.805 772.878 534.683L771.244 535.837ZM780.091 548.888C781.509 551.075 782.918 553.305 784.312 555.577L786.017 554.531C784.613 552.244 783.195 550.001 781.77 547.801L780.091 548.888ZM788.329 562.318C789.632 564.572 790.916 566.867 792.176 569.203L793.937 568.253C792.666 565.899 791.373 563.587 790.061 561.318L788.329 562.318ZM795.819 576.21C796.978 578.527 798.111 580.884 799.214 583.281L801.031 582.445C799.919 580.028 798.777 577.651 797.608 575.315L795.819 576.21ZM802.388 590.507C803.392 592.903 804.363 595.338 805.297 597.813L807.168 597.107C806.225 594.609 805.246 592.152 804.233 589.734L802.388 590.507ZM807.936 605.213C808.768 607.689 809.562 610.204 810.313 612.758L812.232 612.193C811.473 609.615 810.672 607.076 809.832 604.576L807.936 605.213ZM812.377 620.299C813.018 622.828 813.617 625.394 814.169 627.998L816.126 627.583C815.567 624.953 814.963 622.362 814.316 619.808L812.377 620.299ZM815.648 635.688C816.089 638.251 816.486 640.848 816.835 643.482L818.817 643.219C818.465 640.56 818.064 637.936 817.619 635.349L815.648 635.688ZM817.717 651.286C817.959 653.868 818.156 656.484 818.303 659.133L820.3 659.022C820.151 656.347 819.953 653.707 819.709 651.1L817.717 651.286ZM818.595 666.995C818.619 668.322 818.632 669.657 818.632 671H820.632C820.632 669.644 820.619 668.297 820.594 666.958L818.595 666.995Z" fill="#DB00FF" fill-opacity="0.2"/>
</svg>
