<svg width="20" height="20" viewBox="0 0 20 20" fill="none" xmlns="http://www.w3.org/2000/svg">
<path d="M7.7085 7.54175C9.19183 8.08341 10.8085 8.08341 12.2918 7.54175" stroke="#64748B" stroke-width="1.5" stroke-linecap="round" stroke-linejoin="round"/>
<path d="M14.0166 1.66675H5.98327C4.20827 1.66675 2.7666 3.11675 2.7666 4.88341V16.6251C2.7666 18.1251 3.8416 18.7584 5.15827 18.0334L9.22493 15.7751C9.65827 15.5334 10.3583 15.5334 10.7833 15.7751L14.8499 18.0334C16.1666 18.7667 17.2416 18.1334 17.2416 16.6251V4.88341C17.2333 3.11675 15.7916 1.66675 14.0166 1.66675Z" stroke="#64748B" stroke-width="1.5" stroke-linecap="round" stroke-linejoin="round"/>
<path d="M14.0166 1.66675H5.98327C4.20827 1.66675 2.7666 3.11675 2.7666 4.88341V16.6251C2.7666 18.1251 3.8416 18.7584 5.15827 18.0334L9.22493 15.7751C9.65827 15.5334 10.3583 15.5334 10.7833 15.7751L14.8499 18.0334C16.1666 18.7667 17.2416 18.1334 17.2416 16.6251V4.88341C17.2333 3.11675 15.7916 1.66675 14.0166 1.66675Z" stroke="#64748B" stroke-width="1.5" stroke-linecap="round" stroke-linejoin="round"/>
</svg>
