<svg width="15" height="15" viewBox="0 0 15 15" fill="none" xmlns="http://www.w3.org/2000/svg">
<path opacity="0.68" fill-rule="evenodd" clip-rule="evenodd" d="M7.5 14C11.0899 14 14 11.0899 14 7.5C14 3.91015 11.0899 1 7.5 1C3.91015 1 1 3.91015 1 7.5C1 11.0899 3.91015 14 7.5 14Z" stroke="#8692A4" stroke-width="0.75"/>
<path fill-rule="evenodd" clip-rule="evenodd" d="M6.93055 4.5C7.28753 4.5 7.6432 4.5 8.00018 4.5C7.97918 4.74149 7.95687 4.98429 7.93718 5.22577C8.35322 5.25596 8.75876 5.38983 9.12362 5.588C8.96613 5.98436 8.80732 6.38071 8.64852 6.77707C8.34141 6.51589 7.93718 6.37153 7.53427 6.37678C7.43321 6.3794 7.32822 6.39909 7.24422 6.45683C7.1891 6.49489 7.14841 6.55395 7.1366 6.61958C7.12741 6.67207 7.13004 6.73113 7.15891 6.77838C7.19172 6.83088 7.24947 6.86237 7.30722 6.88206C7.42534 6.92406 7.55264 6.92668 7.67601 6.93981C7.96606 6.97524 8.25742 7.02512 8.53171 7.1288C8.74433 7.21017 8.94775 7.33223 9.09343 7.51072C9.23124 7.67477 9.3113 7.88213 9.34148 8.09475C9.37692 8.34017 9.36642 8.59478 9.2903 8.83365C9.23124 9.02526 9.13018 9.20375 8.99894 9.35468C8.72727 9.66966 8.32829 9.85865 7.91881 9.90721C7.93193 10.1658 7.94768 10.423 7.96212 10.6815C7.62351 10.6815 7.28622 10.6815 6.94892 10.6815C6.96205 10.4256 6.97911 10.1697 6.99092 9.91378C6.71925 9.90459 6.4502 9.84422 6.1969 9.74841C5.95148 9.65523 5.71786 9.53186 5.5 9.38749C5.66012 8.97539 5.82023 8.56328 5.98166 8.14987C6.16409 8.30342 6.35833 8.44648 6.57094 8.55541C6.79931 8.67222 7.05261 8.74703 7.30984 8.74965C7.4319 8.75096 7.55789 8.7444 7.67338 8.7024C7.74426 8.67615 7.81382 8.63022 7.84531 8.55803C7.87812 8.48191 7.8755 8.38611 7.82563 8.31786C7.79019 8.27193 7.74032 8.24043 7.68782 8.21812C7.61695 8.18924 7.54345 8.17349 7.46865 8.16168C7.19304 8.11706 6.91611 8.08031 6.64969 7.99369C6.43576 7.92413 6.22709 7.82701 6.05647 7.67739C5.94885 7.58421 5.85961 7.47003 5.79661 7.34141C5.70211 7.1498 5.66668 6.93325 5.6693 6.72063C5.6693 6.48308 5.71786 6.2416 5.83598 6.03292C5.93835 5.84655 6.09453 5.69431 6.2704 5.57751C6.48301 5.43708 6.72056 5.34127 6.96205 5.26383C6.95155 5.00922 6.94105 4.75461 6.93055 4.5Z" fill="#8692A4"/>
</svg>
