<svg width="24" height="23" viewBox="0 0 24 23" fill="none" xmlns="http://www.w3.org/2000/svg">
<path d="M12.0936 21.7616C7.14537 21.7616 3.12256 17.7388 3.12256 12.7905C3.12256 7.84227 7.14537 3.81946 12.0936 3.81946C17.0419 3.81946 21.0647 7.84227 21.0647 12.7905C21.0647 17.7388 17.0419 21.7616 12.0936 21.7616ZM12.0936 5.23594C7.92915 5.23594 4.53904 8.62605 4.53904 12.7905C4.53904 16.955 7.92915 20.3451 12.0936 20.3451C16.2581 20.3451 19.6482 16.955 19.6482 12.7905C19.6482 8.62605 16.2581 5.23594 12.0936 5.23594Z" fill="#64748B"/>
<path d="M12.094 13.2626C11.7068 13.2626 11.3857 12.9415 11.3857 12.5544V7.83275C11.3857 7.44558 11.7068 7.12451 12.094 7.12451C12.4812 7.12451 12.8022 7.44558 12.8022 7.83275V12.5544C12.8022 12.9415 12.4812 13.2626 12.094 13.2626Z" fill="#64748B"/>
<path d="M14.9264 2.8751H9.26049C8.87332 2.8751 8.55225 2.55403 8.55225 2.16686C8.55225 1.77969 8.87332 1.45862 9.26049 1.45862H14.9264C15.3136 1.45862 15.6347 1.77969 15.6347 2.16686C15.6347 2.55403 15.3136 2.8751 14.9264 2.8751Z" fill="#64748B"/>
</svg>
