<svg width="12" height="13" viewBox="0 0 12 13" fill="none" xmlns="http://www.w3.org/2000/svg">
<rect x="2.5" y="10.5" width="7" height="1" rx="0.5" fill="#6E7D93"/>
<path fill-rule="evenodd" clip-rule="evenodd" d="M2.5 6.93699C1.63739 6.71497 1 5.93192 1 5C1 3.89543 1.89543 3 3 3C3.05666 3 3.11278 3.00236 3.16825 3.00698C3.57811 1.83814 4.69118 1 6 1C7.30882 1 8.42189 1.83814 8.83175 3.00698C8.88722 3.00236 8.94334 3 9 3C10.1046 3 11 3.89543 11 5C11 5.93192 10.3626 6.71497 9.5 6.93699V9C9.5 9.27614 9.27614 9.5 9 9.5H3C2.72386 9.5 2.5 9.27614 2.5 9V6.93699V6.93699Z" stroke="#6E7D93"/>
</svg>
