<svg width="12" height="13" viewBox="0 0 12 13" fill="none" xmlns="http://www.w3.org/2000/svg">
<path d="M4.8 10.5H7.2C9.2 10.5 10 9.7 10 7.7V5.3C10 3.3 9.2 2.5 7.2 2.5H4.8C2.8 2.5 2 3.3 2 5.3V7.7C2 9.7 2.8 10.5 4.8 10.5Z" stroke="#6E7D93" stroke-width="0.75" stroke-linecap="round" stroke-linejoin="round"/>
<path d="M5.25 9H6.75C8 9 8.5 8.5 8.5 7.25V5.75C8.5 4.5 8 4 6.75 4H5.25C4 4 3.5 4.5 3.5 5.75V7.25C3.5 8.5 4 9 5.25 9Z" stroke="#6E7D93" stroke-width="0.75" stroke-linecap="round" stroke-linejoin="round"/>
<path d="M4.00488 2.5V1.5" stroke="#6E7D93" stroke-width="0.75" stroke-linecap="round" stroke-linejoin="round"/>
<path d="M6 2.5V1.5" stroke="#6E7D93" stroke-width="0.75" stroke-linecap="round" stroke-linejoin="round"/>
<path d="M8 2.5V1.5" stroke="#6E7D93" stroke-width="0.75" stroke-linecap="round" stroke-linejoin="round"/>
<path d="M10 4.5H11" stroke="#6E7D93" stroke-width="0.75" stroke-linecap="round" stroke-linejoin="round"/>
<path d="M10 6.5H11" stroke="#6E7D93" stroke-width="0.75" stroke-linecap="round" stroke-linejoin="round"/>
<path d="M10 8.5H11" stroke="#6E7D93" stroke-width="0.75" stroke-linecap="round" stroke-linejoin="round"/>
<path d="M8 10.5V11.5" stroke="#6E7D93" stroke-width="0.75" stroke-linecap="round" stroke-linejoin="round"/>
<path d="M6.00488 10.5V11.5" stroke="#6E7D93" stroke-width="0.75" stroke-linecap="round" stroke-linejoin="round"/>
<path d="M4.00488 10.5V11.5" stroke="#6E7D93" stroke-width="0.75" stroke-linecap="round" stroke-linejoin="round"/>
<path d="M1 4.5H2" stroke="#6E7D93" stroke-width="0.75" stroke-linecap="round" stroke-linejoin="round"/>
<path d="M1 6.5H2" stroke="#6E7D93" stroke-width="0.75" stroke-linecap="round" stroke-linejoin="round"/>
<path d="M1 8.5H2" stroke="#6E7D93" stroke-width="0.75" stroke-linecap="round" stroke-linejoin="round"/>
<path d="M6.00035 5.34985L5.53035 6.16985C5.42535 6.34985 5.51035 6.49985 5.72035 6.49985H6.28035C6.49035 6.49985 6.57535 6.64985 6.47035 6.82985L6.00035 7.64985" stroke="#6E7D93" stroke-width="0.75" stroke-linecap="round" stroke-linejoin="round"/>
</svg>
