<svg width="24" height="23" viewBox="0 0 24 23" fill="none" xmlns="http://www.w3.org/2000/svg">
<path d="M11.9957 21.771C10.5981 21.771 9.19104 21.2421 8.09563 20.1939C5.30988 17.5121 2.23139 13.2343 3.39291 8.14441C4.4411 3.52668 8.47336 1.45862 11.9957 1.45862C11.9957 1.45862 11.9957 1.45862 12.0051 1.45862C15.5274 1.45862 19.5597 3.52668 20.6079 8.15385C21.76 13.2437 18.6815 17.5121 15.8957 20.1939C14.8003 21.2421 13.3933 21.771 11.9957 21.771ZM11.9957 2.8751C9.2477 2.8751 5.71594 4.3388 4.78106 8.45604C3.76119 12.9038 6.55638 16.7377 9.08716 19.1646C10.7208 20.7417 13.2799 20.7417 14.9136 19.1646C17.435 16.7377 20.2302 12.9038 19.2292 8.45604C18.2848 4.3388 14.7436 2.8751 11.9957 2.8751Z" fill="#64748B"/>
<path d="M10.8147 13.2626C10.6353 13.2626 10.4559 13.1965 10.3143 13.0548L8.89777 11.6383C8.62392 11.3645 8.62392 10.9112 8.89777 10.6374C9.17163 10.3635 9.6249 10.3635 9.89875 10.6374L10.8147 11.5534L14.0915 8.27656C14.3654 8.0027 14.8187 8.0027 15.0925 8.27656C15.3664 8.55041 15.3664 9.00368 15.0925 9.27754L11.3152 13.0548C11.1736 13.1965 10.9942 13.2626 10.8147 13.2626Z" fill="#64748B"/>
</svg>
