<svg width="104" height="104" viewBox="0 0 104 104" fill="none" xmlns="http://www.w3.org/2000/svg">
<g filter="url(#filter0_d_1_6331)">
<circle cx="52" cy="42" r="32" fill="white"/>
</g>
<path d="M32.9154 45L34.2754 38H35.2854L36.9904 42.485L38.6954 38H39.7054L41.0654 45H39.8204L38.9804 40.67L37.4054 44.84H36.5704L34.9954 40.67L34.1604 45H32.9154ZM43.9338 45.13C43.4738 45.13 43.0538 45.0117 42.6738 44.775C42.2971 44.5383 41.9955 44.2217 41.7688 43.825C41.5455 43.425 41.4338 42.9833 41.4338 42.5C41.4338 42.1333 41.4988 41.7917 41.6288 41.475C41.7588 41.155 41.9371 40.875 42.1638 40.635C42.3938 40.3917 42.6605 40.2017 42.9638 40.065C43.2671 39.9283 43.5905 39.86 43.9338 39.86C44.3938 39.86 44.8121 39.9783 45.1888 40.215C45.5688 40.4517 45.8705 40.77 46.0938 41.17C46.3205 41.57 46.4338 42.0133 46.4338 42.5C46.4338 42.8633 46.3688 43.2033 46.2388 43.52C46.1088 43.8367 45.9288 44.1167 45.6988 44.36C45.4721 44.6 45.2071 44.7883 44.9038 44.925C44.6038 45.0617 44.2805 45.13 43.9338 45.13ZM43.9338 43.91C44.1771 43.91 44.3955 43.845 44.5888 43.715C44.7821 43.585 44.9338 43.4133 45.0438 43.2C45.1571 42.9867 45.2138 42.7533 45.2138 42.5C45.2138 42.24 45.1555 42.0033 45.0388 41.79C44.9255 41.5733 44.7705 41.4017 44.5738 41.275C44.3805 41.145 44.1671 41.08 43.9338 41.08C43.6938 41.08 43.4771 41.145 43.2838 41.275C43.0905 41.405 42.9371 41.5783 42.8238 41.795C42.7105 42.0117 42.6538 42.2467 42.6538 42.5C42.6538 42.7633 42.7121 43.0017 42.8288 43.215C42.9455 43.4283 43.1005 43.5983 43.2938 43.725C43.4905 43.8483 43.7038 43.91 43.9338 43.91ZM47.2173 45L47.2123 40H48.4323L48.4373 40.445C48.6073 40.265 48.8106 40.1233 49.0473 40.02C49.284 39.9133 49.539 39.86 49.8123 39.86C49.9956 39.86 50.179 39.8867 50.3623 39.94L49.8823 41.17C49.7556 41.12 49.629 41.095 49.5023 41.095C49.3056 41.095 49.1256 41.1433 48.9623 41.24C48.8023 41.3333 48.674 41.4617 48.5773 41.625C48.484 41.785 48.4373 41.9633 48.4373 42.16V45H47.2173ZM52.8889 45.13C52.4289 45.13 52.0089 45.0117 51.6289 44.775C51.2522 44.5383 50.9505 44.22 50.7239 43.82C50.5005 43.42 50.3889 42.9783 50.3889 42.495C50.3889 42.1317 50.4539 41.7917 50.5839 41.475C50.7139 41.155 50.8922 40.875 51.1189 40.635C51.3489 40.3917 51.6155 40.2017 51.9189 40.065C52.2222 39.9283 52.5455 39.86 52.8889 39.86C53.2789 39.86 53.6355 39.9433 53.9589 40.11C54.2855 40.2733 54.5622 40.4983 54.7889 40.785C55.0155 41.0717 55.1805 41.3983 55.2839 41.765C55.3872 42.1317 55.4105 42.515 55.3539 42.915H51.6989C51.7455 43.1017 51.8222 43.27 51.9289 43.42C52.0355 43.5667 52.1705 43.685 52.3339 43.775C52.4972 43.8617 52.6822 43.9067 52.8889 43.91C53.1022 43.9133 53.2955 43.8633 53.4689 43.76C53.6455 43.6533 53.7922 43.51 53.9089 43.33L55.1539 43.62C54.9505 44.0633 54.6472 44.4267 54.2439 44.71C53.8405 44.99 53.3889 45.13 52.8889 45.13ZM51.6589 42H54.1189C54.0822 41.8 54.0039 41.62 53.8839 41.46C53.7672 41.2967 53.6222 41.1667 53.4489 41.07C53.2755 40.9733 53.0889 40.925 52.8889 40.925C52.6889 40.925 52.5039 40.9733 52.3339 41.07C52.1639 41.1633 52.0189 41.2917 51.8989 41.455C51.7822 41.615 51.7022 41.7967 51.6589 42Z" fill="#5A48FB"/>
<path d="M66.4175 38.4592L69.9583 42L66.4175 45.5408" stroke="#5A48FB" stroke-miterlimit="10" stroke-linecap="round" stroke-linejoin="round"/>
<path d="M60.0417 42H69.8592" stroke="#5A48FB" stroke-miterlimit="10" stroke-linecap="round" stroke-linejoin="round"/>
<defs>
<filter id="filter0_d_1_6331" x="0" y="0" width="104" height="104" filterUnits="userSpaceOnUse" color-interpolation-filters="sRGB">
<feFlood flood-opacity="0" result="BackgroundImageFix"/>
<feColorMatrix in="SourceAlpha" type="matrix" values="0 0 0 0 0 0 0 0 0 0 0 0 0 0 0 0 0 0 127 0" result="hardAlpha"/>
<feOffset dy="10"/>
<feGaussianBlur stdDeviation="10"/>
<feColorMatrix type="matrix" values="0 0 0 0 0.160784 0 0 0 0 0.160784 0 0 0 0 0.164706 0 0 0 0.07 0"/>
<feBlend mode="normal" in2="BackgroundImageFix" result="effect1_dropShadow_1_6331"/>
<feBlend mode="normal" in="SourceGraphic" in2="effect1_dropShadow_1_6331" result="shape"/>
</filter>
</defs>
</svg>
