<svg width="18" height="17" viewBox="0 0 18 17" fill="none" xmlns="http://www.w3.org/2000/svg">
<path fill-rule="evenodd" clip-rule="evenodd" d="M6.41316 2.64786C6.31728 2.20045 5.67886 2.20044 5.58298 2.64786L4.56881 7.38067C4.31716 8.55504 3.27932 9.39404 2.07829 9.39404H0.903951C0.435051 9.39404 0.0549316 9.01392 0.0549316 8.54502C0.0549316 8.07612 0.435051 7.696 0.903951 7.696H2.07829C2.47863 7.696 2.82458 7.41634 2.90846 7.02488L3.92263 2.29207C4.40201 0.054997 7.59413 0.0549764 8.0735 2.29207L10.6771 14.4422C10.773 14.8896 11.4114 14.8896 11.5073 14.4422L12.5214 9.70938C12.7731 8.53501 13.8109 7.696 15.012 7.696H16.1863C16.6552 7.696 17.0353 8.07612 17.0353 8.54502C17.0353 9.01392 16.6552 9.39404 16.1863 9.39404H15.012C14.6116 9.39404 14.2657 9.67371 14.1818 10.0652L13.1676 14.798C12.6882 17.0351 9.49613 17.035 9.01675 14.798L6.41316 2.64786Z" fill="#1D4ED8"/>
</svg>
