<svg width="23" height="23" viewBox="0 0 23 23" fill="none" xmlns="http://www.w3.org/2000/svg">
<path d="M13.1745 3.59261L14.8365 6.91662C15.0632 7.37934 15.6675 7.82317 16.1775 7.90816L19.1898 8.40865C21.1163 8.72971 21.5695 10.1273 20.1814 11.506L17.8395 13.8479C17.4428 14.2445 17.2256 15.0094 17.3484 15.5572L18.0189 18.4562C18.5477 20.7509 17.3295 21.6386 15.2992 20.4393L12.4757 18.7678C11.9658 18.4657 11.1253 18.4657 10.606 18.7678L7.78244 20.4393C5.76159 21.6386 4.53397 20.7415 5.06279 18.4562L5.73326 15.5572C5.85602 15.0094 5.63883 14.2445 5.24221 13.8479L2.9003 11.506C1.52159 10.1273 1.96542 8.72971 3.89183 8.40865L6.90422 7.90816C7.40471 7.82317 8.00907 7.37934 8.23571 6.91662L9.89772 3.59261C10.8043 1.78895 12.2774 1.78895 13.1745 3.59261Z" stroke="#64748B" stroke-width="1.41648" stroke-linecap="round" stroke-linejoin="round"/>
</svg>
