<svg width="12" height="13" viewBox="0 0 12 13" fill="none" xmlns="http://www.w3.org/2000/svg">
<path d="M6.09988 9.18997C5.74988 9.18997 5.39488 9.05496 5.12988 8.78996C4.86988 8.52996 4.72488 8.18497 4.72488 7.81997C4.72488 7.45497 4.86988 7.10497 5.12988 6.84997L5.83487 6.14497C5.97987 5.99997 6.21987 5.99997 6.36487 6.14497C6.50987 6.28997 6.50987 6.52997 6.36487 6.67497L5.65988 7.37997C5.53988 7.49997 5.47488 7.65497 5.47488 7.81997C5.47488 7.98497 5.53988 8.14496 5.65988 8.25996C5.90488 8.50496 6.29989 8.50496 6.54489 8.25996L7.65488 7.14996C8.28988 6.51496 8.28988 5.48497 7.65488 4.84997C7.01988 4.21497 5.98989 4.21497 5.35489 4.84997L4.14487 6.05996C3.88987 6.31496 3.74988 6.64997 3.74988 7.00497C3.74988 7.35997 3.88987 7.69996 4.14487 7.94996C4.28987 8.09496 4.28987 8.33496 4.14487 8.47996C3.99987 8.62496 3.75987 8.62496 3.61487 8.47996C3.21987 8.08496 3.00488 7.55996 3.00488 6.99996C3.00488 6.43996 3.21987 5.91497 3.61487 5.51997L4.82489 4.30996C5.74989 3.38496 7.25988 3.38496 8.18488 4.30996C9.10988 5.23496 9.10988 6.74496 8.18488 7.66996L7.07489 8.77996C6.80489 9.05496 6.45488 9.18997 6.09988 9.18997Z" fill="#64748B"/>
<path d="M6 11.875C3.035 11.875 0.625 9.465 0.625 6.5C0.625 3.535 3.035 1.125 6 1.125C8.965 1.125 11.375 3.535 11.375 6.5C11.375 9.465 8.965 11.875 6 11.875ZM6 1.875C3.45 1.875 1.375 3.95 1.375 6.5C1.375 9.05 3.45 11.125 6 11.125C8.55 11.125 10.625 9.05 10.625 6.5C10.625 3.95 8.55 1.875 6 1.875Z" fill="#64748B"/>
</svg>
