<svg width="64" height="64" viewBox="0 0 64 64" fill="none" xmlns="http://www.w3.org/2000/svg">
<path d="M64 32C64 49.6731 49.6731 64 32 64C14.3269 64 0 49.6731 0 32C0 14.3269 14.3269 0 32 0C49.6731 0 64 14.3269 64 32Z" fill="#00A478"/>
<path d="M28.6385 29.8289V23.3122H19.7998V17.6H44.4985V23.3926H35.6599V29.8289H28.6385Z" fill="white"/>
<path fill-rule="evenodd" clip-rule="evenodd" d="M16 30.5525C16 28.3803 23.104 26.6103 31.9426 26.6103C40.7813 26.6103 47.8853 28.3803 47.8853 30.5525C47.8853 32.7248 40.7813 34.4947 31.9426 34.4947C23.104 34.4947 16 32.7248 16 30.5525ZM46.5636 30.553C45.9854 29.7484 41.1944 27.2544 31.9427 27.2544C22.691 27.2544 17.8999 29.668 17.3217 30.553C17.8999 31.3575 22.691 32.5643 31.9427 32.5643C41.277 32.5643 45.9854 31.3575 46.5636 30.553Z" fill="white"/>
<path d="M35.6599 31.8391V27.3337C34.5035 27.2533 33.2644 27.1728 32.0254 27.1728C30.8689 27.1728 29.795 27.1728 28.7212 27.2533V31.7586C29.7124 31.7586 30.8689 31.8391 32.0254 31.8391C33.2644 31.9196 34.5035 31.9196 35.6599 31.8391Z" fill="white"/>
<path d="M31.9427 34.4929C30.7862 34.4929 29.7124 34.4929 28.6385 34.4125V46.4H35.5773V34.332C34.4208 34.4125 33.1818 34.4929 31.9427 34.4929Z" fill="white"/>
</svg>
